<svg xmlns="http://www.w3.org/2000/svg" xmlns:xlink="http://www.w3.org/1999/xlink" xml:space="preserve" id="Layer_1" width="49" height="80.4" x="0" y="0" style="enable-background:new 0 0 49 80.4" version="1.1"><style>.st4{fill:#fff9b0}</style><path d="M39.9 46.5c-.2-.5-1.8-3.8-2.2-4.5-1.4-3-2.1-4.8-2.5-6.5-.4-1.5-.5-3.1-.5-4.7.1-1.4 0-2 .1-2.7v-.6c.9-14.8 2.4-23.1-14.2-23C2.9 4.7 5.1 14.3 6 27.4c.1 1.3.1 2.5.2 3.7 0 .5.1 1.2.1 2.2 0 1.6-.1 3.2-.5 4.7-.6 2.4-1 3.8-2.2 6.2-.5.9-1.6 3.2-1.8 3.9C-.4 54.1 0 57 .2 60.8 1.3 77.3 12 78.7 21.9 78.5c9.3-.1 19.5-1.4 20.3-18.9.3-5.1-.2-8.5-2.3-13.1" style="fill:#fc8e2c"/><path d="M31.8 7c4.6 3.5 3.7 10.5 3.1 20.5v.6c-.1.7 0 1.3-.1 2.7-.1 1.6.1 3.2.5 4.7.4 1.8 1.1 3.6 2.5 6.5.3.7 1.9 4 2.2 4.5 2.1 4.6 2.6 7.9 2.3 13.1-.8 17.5-11 18.8-20.3 18.9h-1c-1.9 0-3.8-.1-5.7-.3 2.9 1.6 6.2 2.1 9.7 2.1 1.9 0 3.8-.2 5.7-.3 9.2-1 19.3-3.2 18.5-20.7-.2-5.1-1-8.4-3.6-12.8-.3-.5-2.2-3.6-2.6-4.3-1.7-2.8-2.5-4.5-3.1-6.3-.5-1.5-.8-3.1-.9-4.7-.1-1.4-.2-2-.2-2.7v-.6c-.5-11.1-.3-18.6-7-20.9" style="fill:#ffebab"/><path d="M26.1 66.6c-6.4 0-11.7-4.8-11.9-10.9-.3-6.3 4.9-11.6 11.5-11.9h.6c6.4 0 11.7 4.8 11.9 10.9.3 6.3-4.9 11.6-11.5 11.9h-.6m.1-60.4c-1.2 0-2.5.1-3.9.2C4.7 8.3 7.8 17.7 9.9 30.6c.2 1.3.3 2.5.6 3.7 0 .5.2 1.2.3 2.2.2 1.6.2 3.2-.1 4.8-.4 2.4-.7 3.9-1.6 6.4-.4 1-1.3 3.3-1.4 4.1-1.7 6.2-1 9.1-.4 12.8 1.2 7.4 4.2 11.5 7.9 13.6 1.8.2 3.8.3 5.7.3h1c9.3-.1 19.5-1.4 20.3-18.9.2-5.1-.2-8.5-2.3-13.1-.2-.5-1.8-3.8-2.2-4.5-1.4-3-2.1-4.8-2.5-6.5-.4-1.5-.5-3.1-.5-4.7.1-1.4 0-2 .1-2.7v-.6c.6-10 1.5-17-3.1-20.5-1.4-.5-3.3-.8-5.5-.8" style="fill:#ffdc55"/><path d="M26.3 43.8h-.6c-6.6.3-11.8 5.6-11.5 11.9.3 6.1 5.6 10.9 11.9 10.9h.6c6.6-.3 11.8-5.6 11.5-11.9-.3-6.2-5.6-11-11.9-10.9" style="fill:#fda826"/><path d="M29.5 51.3c.6-.6 1.5-1.1 2.5-1.3h.2l.2.1c.1.1.3.2.2.3 0 .1-.2.2-.3.3-.6.4-1.3.7-2 1-.2.1-.8.4-1.1.2-.1-.1.2-.4.3-.6zM31.7 52.3c.8-.5 1.9-.7 2.9-.7l.2.1.1.1c.1.1.2.3.1.4-.1.1-.2.2-.4.2-.8.2-1.6.4-2.3.5-.3 0-.9.2-1.1-.1-.1-.2.3-.4.5-.5zM26.8 48.2c.6-.6 1.5-1.1 2.5-1.3h.2l.2.1c.1.1.3.2.2.3 0 .1-.2.2-.3.3-.6.4-1.3.7-2 1-.2.1-.8.4-1 .2-.3-.1 0-.4.2-.6zM28.9 49.1c.8-.5 1.9-.7 2.9-.7l.2.1.1.1c.1.1.2.3.1.4-.1.1-.2.2-.4.2-.8.2-1.6.4-2.3.5-.3 0-.9.2-1.1-.1-.1-.1.3-.3.5-.5zM30.1 53.8c1-.3 2.1-.3 3-.1l.2.1.1.2c0 .1.1.3-.1.4-.1.1-.3.1-.5.1-.8.1-1.6.1-2.4 0-.3 0-.9 0-1-.2 0-.3.5-.4.7-.5zM32 55.4c1-.3 2.1-.3 3-.1l.2.1.1.2c0 .1.1.3-.1.4-.1.1-.3.1-.5.1-.8.1-1.6.1-2.4 0-.3 0-.9 0-1-.2-.1-.3.4-.4.7-.5zM30.2 57.3c1-.3 2.1-.2 3 0l.2.1.1.2c0 .1 0 .3-.1.4-.1.1-.3.1-.5.1-.8 0-1.6 0-2.4-.1-.3 0-.9-.1-1-.3 0-.2.4-.3.7-.4zM31.1 59c1 0 2.1.3 2.8.8l.2.2v.2c-.1.1-.1.3-.3.3-.2.1-.3 0-.5 0-.8-.2-1.5-.4-2.2-.7-.2-.1-.8-.3-.8-.5 0-.3.5-.3.8-.3zM28.6 59.6c1 .2 1.9.7 2.4 1.3l.1.2-.1.1c-.1.1-.2.3-.4.3s-.3 0-.5-.1c-.7-.3-1.3-.7-1.9-1.1-.2-.1-.7-.4-.6-.7.2-.2.7-.1 1 0zM28.7 61.7c1 .2 1.9.7 2.4 1.3l.1.2-.1.2c-.1.1-.2.3-.4.3s-.3 0-.5-.1c-.7-.3-1.3-.7-1.9-1.1-.2-.1-.7-.4-.6-.7.2-.2.7-.1 1-.1zM22.9 51.7c-.6-.6-1.6-1-2.6-1.1H20l-.2.1c-.1.1-.2.2-.2.4 0 .1.2.2.3.3.7.3 1.4.6 2.1.8.2.1.8.3 1.1.1.2-.2-.1-.5-.2-.6zM20.8 52.8c-.9-.4-2-.5-3-.4l-.2.1-.1.1c-.1.1-.1.3 0 .4.1.1.3.2.4.2.8.2 1.6.2 2.4.2.3 0 .9.1 1.1-.1 0-.3-.4-.4-.6-.5zM24.3 48.6c-.4-.7-1.1-1.3-2-1.6H22l-.2.1c-.2.1-.3.2-.3.3 0 .1.1.2.2.3.5.4 1 .9 1.7 1.2.2.1.7.5 1 .3.2-.1 0-.4-.1-.6zM23.3 49.5c-.9-.4-2-.5-3-.4l-.2.1-.1.1c-.1.1-.1.3 0 .4.1.1.3.2.4.2.8.2 1.6.2 2.4.2.3 0 .9.1 1.1-.1 0-.2-.4-.4-.6-.5zM22.5 54.2c-1-.2-2.1-.2-3 .2l-.2.1-.1.2c0 .1 0 .3.1.4.1.1.3.1.5.1.8 0 1.6-.1 2.4-.2.3-.1.9-.1 1-.3 0-.4-.5-.5-.7-.5zM20.8 55.9c-1-.2-2.1-.2-3 .2l-.2.1-.1.2c0 .1 0 .3.1.4.1.1.3.1.5.1.8 0 1.6-.1 2.4-.2.3-.1.9-.1 1-.3 0-.4-.5-.4-.7-.5zM22.7 57.5c-1-.2-2.1-.1-3 .3l-.2.2v.2c0 .1 0 .3.1.4.1.1.3.1.5.1.8 0 1.6-.1 2.4-.3.2-.1.9-.1 1-.4-.1-.3-.5-.4-.8-.5zM21.9 59.3c-1 .1-2 .4-2.8 1l-.1.1v.2c0 .1.1.3.3.3.2.1.3 0 .5 0 .8-.2 1.5-.5 2.1-.8.2-.1.8-.3.8-.6s-.5-.2-.8-.2zM23.8 60.1c-1 .3-1.8.8-2.3 1.4l-.1.2.1.2c.1.1.2.2.4.2s.3-.1.5-.1c.7-.3 1.3-.8 1.8-1.2.2-.2.7-.5.5-.7-.2-.2-.7-.1-.9 0zM24.5 61.8c-.8.5-1.4 1.2-1.6 1.9v.2l.2.1c.1.1.3.2.5.1.2 0 .3-.1.4-.2.5-.5.9-1 1.2-1.5.1-.2.4-.6.2-.8-.3-.1-.7.1-.9.2z" class="st4"/><defs><path id="SVGID_1_" d="M20 0c-1.1 0-2.5.8-2.6.8-1.2 1.8-1 3.5-1 4 1.2-.1 2.6-.2 4.2-.2h.7c-1.1-2.2-.1-3.7-.1-3.7C21 .2 20.5 0 20 0"/></defs><clipPath id="SVGID_00000096017657067867226100000007237700714075646891_"><use xlink:href="#SVGID_1_" style="overflow:visible"/></clipPath><g style="clip-path:url(#SVGID_00000096017657067867226100000007237700714075646891_)"><path d="M16.2 0h5.1v4.8h-5.1z" style="fill:#3767d3"/></g><path d="M21 4.5h-.4c-1.5 0-2.9.1-4.2.2v.2c.1 1 .8 1.3 1.6 1.3 1.5 0 3.6-1.1 3.6-1.1-.2-.2-.3-.5-.4-.7 0 .1-.1.1-.2.1" style="fill:#363924"/></svg>