<svg xmlns="http://www.w3.org/2000/svg" width="58.8" height="89.4" xmlns:v="https://vecta.io/nano"><path d="M56.2 10.6c-13.7 6.6-24.8 17.9-33.3 29.6-5.8 9-11.5 20.4-15.8 34.8 19.1-50.1 51.7-59.9 51.7-59.9l-2.6-4.5" fill="#17a27b"/><path d="M39.8 0C3.8 26 1.2 83.3 1.2 83.3l3.4-.2c0-.4.1-.9.1-1.3l-2.9-.5s.1-.3.2-.9l-.4-.1s.3-.8.8-2.3h0s.9-21.6 15.1-44.6C29.1 10.3 43.4 3.3 43.4 3.3L39.8 0" fill="#4ed8aa"/><path d="M2.5 77.9l-.8 2.3.4.1c.1-.6.3-1.4.6-2.4h-.2" fill="#0ee3a7"/><path d="M7.1 75.1l-2.2 6.2h-.1v.6l.5.1 1.8-6.9M52.2 7.5c-7.4 4.1-27.3 17.6-39.8 49.3 2.9-5.3 6.4-11 10.5-16.6 14.9-22.9 31.3-30 31.3-30l-2-2.7" fill="#d6ff66"/><path d="M22.9 40.2c-4.1 5.6-7.6 11.3-10.5 16.6-2.5 6.4-4.8 13.6-6.5 21.5l-.7-.1-.3 3H5c.7-2.1 1.5-4.2 2.2-6.2 4.2-14.3 9.8-25.8 15.7-34.8" fill="#b5ff62"/><path d="M2.1 80.3c-.1.6-.2.9-.2.9l2.9.5v-.6l-2.7-.8" fill="#c7ff88"/><path d="M2.7 77.9l-.6 2.4 2.8.9.3-3-2.5-.3" fill="#b2ff85"/><path d="M49.7.8c-14.8 9.6-25 21.2-32 32.5-3.5 7.1-6.8 15.7-9.2 26.1 6.9-18.1 20-42.6 42.8-53.3l1 1.3 2.9-1.5L49.7.8" fill="#17a27b"/><path d="M17.6 33.3C3.4 56.3 2.5 77.9 2.5 77.9h0c.1-.3.2-.6.4-1 1-3.9 2.8-10.2 5.5-17.5 2.5-10.4 5.7-19 9.2-26.1" fill="#0ee3a4"/><path d="M2.9 76.9c-.1.4-.3.7-.4 1h.1l.3-1" fill="#02eba1"/><path d="M51.2 6.1C28.4 16.9 15.3 41.3 8.4 59.4c-.7 2.8-1.3 5.7-1.8 8.8 1.5-3.4 3.5-7.3 5.8-11.4C24.9 25.1 44.8 11.6 52.2 7.5l-1-1.4" fill="#26ff62"/><path d="M12.4 56.8c-2.3 4.2-4.2 8.1-5.8 11.4-.6 3.2-1 6.5-1.5 10l.7.1c1.8-7.9 4.1-15.1 6.6-21.5" fill="#20ff5e"/><path d="M8.4 59.4C5.7 66.7 3.9 73 2.9 76.9c.8-2.1 2.1-5.1 3.7-8.7l1.8-8.8" fill="#23ff83"/><path d="M6.6 68.2l-3.7 8.7c-.1.3-.2.7-.2 1l2.5.3c.4-3.4.9-6.8 1.4-10" fill="#20ff80"/><path d="M3.6 66.2c-.2.1-.3.1-.4.2-.2.3-.1.6-.1.9-.3 3.3-1.3 5.9-1.6 9.1-.1 1.2-.5 2.1-.9 3.2-.4 1.5-.9 4.9-.3 6.5s2.3 1.4 3.8 1.9c1.8.6 3.2 2.2 4.1.6.8-1.6 1.3-6.1 1.4-8.1v-1.6c0-.7-.2-1.3-.2-2-.1-1.1 0-2.2.2-3.3l.8-4c.1-.7.3-1.2.4-1.9.1-.9.7-.8-1-1.3-2.1-.4-4.5-.8-6.2-.2h0z" fill="#f0eed7"/></svg>