<svg xmlns="http://www.w3.org/2000/svg" width="70.1" height="70.6" xmlns:v="https://vecta.io/nano"><path d="M67.3,33.7c0,18.6-15.1,33.7-33.7,33.7S0,52.3,0,33.7S15.1,0,33.7,0S67.3,15.1,67.3,33.7" fill="#17a27b"/><path d="M62.9 17c2.8 4.9 4.4 10.6 4.4 16.7 0 18.6-15.1 33.7-33.7 33.7-5.4 0-10.6-1.3-15.1-3.6 5.4 4.1 12.1 6.6 19.3 6.8h1.4c19.7 0 30.9-15.7 30.9-33.2 0-7.7-2.7-14.8-7.2-20.4" fill="#fdc371"/><path d="M37.6 4.9A32.44 32.44 0 0 0 5.1 37.4c0 10.8 5.3 20.3 13.5 26.4 4.5 2.3 9.7 3.6 15.1 3.6 18.6 0 33.7-15.1 33.7-33.7 0-6-1.6-11.7-4.4-16.7C57 9.6 47.8 4.9 37.6 4.9" fill="#fcd46d"/><path d="M36.4 37.2C39 46.9 44 61 33.8 55.4c-4.8-2.7-9-6.2-11.5-14.5s-.5-14.6 2.2-17.7c7.1-8.2 7.2-3.7 11.9 14h0zm2.6 1.1c2.7 9.8 5.5 24.4 11.5 14.4 2.8-4.7 4.6-9.9 2.6-18.3s-7-12.9-10.8-14.2c-10.4-3.5-8.1.4-3.3 18.1z" fill="#fc8e2c"/><g fill="#fdc371"><path d="M42.5 30.8c.4-1.1 1.3-2.1 2.3-2.6.1 0 .2-.1.3-.1l.2.1c.2.1.4.3.4.5s-.1.4-.2.5c-.6.8-1.2 1.4-1.9 2-.2.2-.8.8-1.1.6-.3-.1-.1-.7 0-1h0z"/><use href="#B"/><path d="M38.2 26.7c.4-1.1 1.3-2.1 2.4-2.6.1 0 .2-.1.3-.1l.2.1c.2.1.4.3.4.5s-.1.4-.2.5c-.6.8-1.2 1.4-1.9 2-.2.2-.8.8-1.1.6-.5-.2-.2-.7-.1-1h0z"/><use href="#B" x="-4.3" y="-4.1"/><use href="#C"/><use href="#C" x="2.7" y="2"/><path d="M45.4 39.8c1-.6 2.3-.9 3.5-.7.1 0 .2 0 .3.1l.1.2c.1.2.1.4 0 .6s-.3.2-.5.3c-.9.3-1.8.4-2.8.4-.3 0-1.1.2-1.2-.2-.1-.2.4-.5.6-.7h0zm1.7 2.5c1.2-.3 2.4-.1 3.5.5l.2.2.1.3c0 .2 0 .5-.2.6-.1.1-.3.1-.5.1-.9-.1-1.9-.2-2.8-.5-.3-.1-1.1-.2-1.1-.6s.5-.5.8-.6h0zm-2.7 1.5c1.2 0 2.4.5 3.2 1.4l.2.2v.3c-.1.2-.1.4-.3.5s-.4 0-.6 0c-.9-.3-1.8-.7-2.5-1.2-.3-.2-1-.5-.9-.9s.6-.3.9-.3h0zm1 3.2c1.2 0 2.4.5 3.2 1.4l.2.2v.3c-.1.2-.1.4-.3.5s-.4 0-.6 0c-.9-.3-1.8-.7-2.5-1.2-.3-.2-1-.5-.9-.9 0-.3.6-.3.9-.3h0z"/><use href="#D"/><path d="M30 43.1a5.32 5.32 0 0 1-3.1 1.7h-.3l-.2-.2c-.1-.2-.3-.4-.2-.6 0-.2.2-.3.4-.4.8-.5 1.6-.9 2.5-1.2.3-.1 1-.5 1.2-.2s-.1.7-.3.9h0z"/><use href="#D" x="4.2" y="4.2"/><path d="M34.2 47.3a5.32 5.32 0 0 1-3.1 1.7h-.3l-.2-.2c-.1-.2-.3-.4-.2-.6 0-.2.2-.3.4-.4.8-.5 1.6-.9 2.5-1.2.3-.1 1-.5 1.2-.2.3.3-.1.7-.3.9h0zm-3-6.9c-1 .7-2.2 1-3.4.8-.1 0-.2 0-.3-.1l-.2-.2c-.1-.2-.2-.4-.1-.6a.55.55 0 0 1 .5-.3c.9-.3 1.8-.5 2.7-.6.3 0 1.1-.2 1.2.2.4.3-.1.6-.4.8zm-2.7-2.1c-1 .7-2.2 1-3.4.8-.1 0-.2 0-.3-.1l-.2-.2c-.1-.2-.2-.4-.1-.6a.55.55 0 0 1 .5-.3c.9-.3 1.8-.5 2.7-.6.3 0 1.1-.2 1.2.2.4.3-.1.7-.4.8h0zm1.4-3.2c-1 .6-2.3.9-3.5.6-.1 0-.2 0-.3-.1l-.1-.2c-.1-.2-.1-.4 0-.6s.3-.2.5-.3c.9-.2 1.8-.4 2.8-.4.3 0 1.1-.1 1.2.2.2.3-.3.6-.6.8zm-1.6-2.5c-1.2.3-2.5.1-3.5-.5l-.2-.2v-.3c0-.2 0-.5.2-.6s.4-.1.6-.1c.9.1 1.9.2 2.8.5.3.1 1.1.2 1.1.6-.2.5-.7.6-1 .6h0zm2.7-1.4c-1.2 0-2.4-.6-3.2-1.4-.1-.1-.1-.2-.2-.2v-.3a.55.55 0 0 1 .3-.5c.2-.1.4 0 .6 0 .9.3 1.7.7 2.5 1.2.3.2 1 .5.9.9-.1.3-.7.3-.9.3h0zm-1-3.3c-1.2 0-2.4-.6-3.2-1.4-.1-.1-.1-.2-.2-.2V26a.55.55 0 0 1 .3-.5c.2-.1.4 0 .6 0 .9.3 1.7.7 2.5 1.2.3.2 1 .5.9.9 0 .4-.6.3-.9.3h0z"/></g><defs ><path id="B" d="M45.3 31.8a5.32 5.32 0 0 1 3.1-1.7h.3l.2.2c.1.2.3.4.2.6 0 .2-.2.3-.4.4-.8.5-1.6 1-2.5 1.3-.3.1-1 .5-1.2.2-.3-.4.1-.8.3-1h0z"/><path id="C" d="M44.1 34.6c1-.7 2.2-1 3.4-.9.1 0 .2 0 .3.1l.2.2c.1.2.2.4.1.6a.55.55 0 0 1-.5.3c-.9.3-1.8.5-2.7.6-.3 0-1.1.2-1.2-.1-.4-.3.1-.7.4-.8h0z"/><path id="D" d="M32.8 44.1c-.4 1.1-1.3 2.1-2.4 2.6-.1 0-.2.1-.3.1l-.2-.1c-.2-.1-.4-.3-.4-.5s.1-.4.2-.5c.6-.7 1.2-1.4 2-2 .2-.2.8-.8 1.1-.6s.1.7 0 1z"/></defs></svg>