<svg xmlns="http://www.w3.org/2000/svg" width="54.1" height="43.4" xmlns:v="https://vecta.io/nano"><g fill="#17a27b"><path d="M33.8 16.7c13.3 10.5 20.8 24.5 20.2 26-.9 2.5-16.3-1.4-29.6-11.9S3.1 4.1 6 4.5c3.1.5 14.5 1.7 27.8 12.2"/><path d="M53.7 41.1c.3.8.4 1.3.3 1.5.2-.1.1-.6-.3-1.5m-8.9-13.7h0l2.7 3.3-2.7-3.3M7.9 4.8s-.1 0 0 0c.8.1 1.9.3 3.1.6l-3.1-.6"/></g><path d="M7.8 4.8C7 5 6.4 5 6.4 5a3.61 3.61 0 0 1 1.2 1.9c4.7 6.9 20.1 26.9 46.4 35.7h.1c.1-.2-.1-.8-.3-1.5-.3-.8-.8-1.9-1.5-3.1-.7.6-1.6.9-2.5.9-2.2 0-4-1.8-4-4 0-1.6.9-2.9 2.2-3.6-.1-.2-.3-.4-.4-.6a39.16 39.16 0 0 0-2.7-3.3c-.4 2.6-2.6 4.6-5.2 4.6-2.9 0-5.2-2.3-5.2-5.2s2.2-5 4.9-5.2c-.4-.4-.9-.8-1.3-1.2-.9 1.2-2.4 2-4.1 2-2.9 0-5.2-2.3-5.2-5.2 0-1.2.4-2.4 1.2-3.2-.8-.5-1.5-1-2.2-1.5v.7c0 2.9-2.3 5.2-5.2 5.2s-5.2-2.3-5.2-5.2c0-2 1.2-3.8 2.9-4.7-.6-.3-1.2-.5-1.7-.7-.7 1.2-2 2-3.5 2-2.2 0-4-1.8-4-4v-.4c-.1 0-.2 0-.3-.1-1.1-.2-2.1-.4-3-.5" fill="#02673b"/><path d="M22.6 8c-.8 0-1.6.2-2.2.5 2.3 1 4.8 2.3 7.4 3.9-.4-2.5-2.6-4.4-5.2-4.4" fill="#6cdfb8"/><path d="M20.4 8.5s-.1 0 0 0c2.3 1 4.8 2.3 7.4 3.9l-7.4-3.9" fill="#10d89d"/><path d="M20.3 8.5c-1.7.8-2.9 2.6-2.9 4.7 0 2.9 2.3 5.2 5.2 5.2s5.2-2.3 5.2-5.2v-.7c-2.7-1.7-5.2-2.9-7.5-4" fill="#01a24b"/><path d="M34 12c-1.6 0-3.1.7-4 1.9l3.8 2.8 4.3 3.7c.7-.9 1.1-2 1.1-3.2 0-2.9-2.3-5.2-5.2-5.2" fill="#6cdfb8"/><path d="M30 13.9l3.7 2.8 4.4 3.7h0c-1.3-1.3-2.8-2.5-4.3-3.7L30 13.9" fill="#10d89d"/><path d="M30 13.9c-.7.9-1.2 2-1.2 3.2 0 2.9 2.3 5.2 5.2 5.2 1.7 0 3.1-.8 4.1-2l-4.4-3.7-3.7-2.7" fill="#01a24b"/><path d="M39.7 21.6h-.2c.3.3.7.6 1 1l4.4 4.8v-.6c0-2.9-2.4-5.2-5.2-5.2" fill="#6cdfb8"/><g fill="#10d89d"><path d="M39.4 21.6h0c.3.3.7.6 1 1-.3-.3-.6-.7-1-1"/><path d="M40.4 22.6l4.4 4.8h0c-1.3-1.6-2.8-3.2-4.4-4.8"/></g><path d="M39.4 21.6c-2.8.1-4.9 2.4-4.9 5.2s2.3 5.2 5.2 5.2c2.7 0 4.8-2 5.2-4.6-1.3-1.6-2.8-3.2-4.4-4.8-.4-.3-.7-.7-1.1-1" fill="#01a24b"/><path d="M49.6 30.9c-.6 0-1.2.2-1.8.4l4.3 6.6c.9-.7 1.4-1.8 1.4-3.1.1-2.1-1.7-3.9-3.9-3.9" fill="#6cdfb8"/><path d="M47.9 31.3h0l4.3 6.6-4.3-6.6" fill="#10d89d"/><path d="M47.9 31.3c-1.3.7-2.2 2-2.2 3.6 0 2.2 1.8 4 4 4 1 0 1.8-.3 2.5-.9-1-1.9-2.5-4.2-4.3-6.7" fill="#01a24b"/><path d="M15.2 1.9c-2 0-3.7 1.6-4 3.5 2.1.5 4.6 1.2 7.4 2.3.3-.6.5-1.2.5-1.9 0-2.1-1.7-3.9-3.9-3.9" fill="#6cdfb8"/><path d="M11.2 5.5h0c2.1.5 4.6 1.2 7.4 2.4-2.8-1.2-5.3-2-7.4-2.4" fill="#10d89d"/><path d="M11.2 5.5v.4c0 2.2 1.8 4 4 4 1.5 0 2.8-.8 3.5-2-2.9-1.2-5.4-2-7.5-2.4" fill="#01a24b"/><path d="M1.1 0L0 1.5S5.6 3.1 5.4 13c0 0 1.1-1.3 1.7-3C5.5 6.7 5 4.5 5.9 4.5l1.9.3c1.6-.4 3.9-1.5 4.8-4.4 0 0-2.5 2.5-5.9 2.5-1.6 0-3.6-.7-5.6-2.9" fill="#4ed8aa"/><path d="M5.9 4.5c-1 0-.5 2.2 1.2 5.5.4-1 .6-2.1.4-3.1L5.9 4.5m.1 0l1.9.3C7 4.6 6.4 4.5 6 4.5" fill="#0ee3a7"/><path d="M6 4.5c.1.2.6 1 1.5 2.4C7.4 6.2 7 5.6 6.4 5c0 0 .6 0 1.5-.2L6 4.5" fill="#01d17d"/></svg>