<svg xmlns="http://www.w3.org/2000/svg" width="53" height="112.2" xmlns:v="https://vecta.io/nano"><path d="M52.2 74.2c0 17.9.6 33.8-24.3 33C4 106.5 4 92.4 4 74.1s12.2-33 24-33.2c12-.1 24.2 15 24.2 33.3" fill="#f1c630"/><path d="M51.6 89.9c-1.4 10.2-6.2 17.4-22 17.4h-1.7-.6c0 3.1.1 4.9.3 4.9h1.8c17.2 0 21.3-9.7 22.2-22.3" fill="#ffefbf"/><path d="M34.3 105.6l-3.5-11.7 8.4 8.9-4.9 2.8m9.2-4.5L30.9 90.4l16.1 4-3.5 6.7m4.7-8.7l-16.2-7 17.7-.9-1.5 7.9m1.2-9.4l-18.7-3.7 18.5-4.4.2 8.1m-.5-9.9l-17.7-.2 16-7.7 1.7 7.9m-18.7-4.9l11.7-10.8 3.5 6-15.2 4.8m-.1-6l5.4-11 4.3 3.6-9.7 7.4m-2.3-15.4h-.2l-.3 60.4h.6 1.7c15.8 0 20.6-7.2 22-17.4.2-3.3.3-6.7.3-10.3 0-17.8-12.1-32.7-24.1-32.7" fill="#fadb76"/><g fill="#fdeebf"><path d="M41.9 57.4L30.2 68.2l15.2-4.8-3.5-6m-11 33l12.6 10.7 3.5-6.7-16.1-4m4.6-39.2l-5.4 11 9.8-7.5-4.4-3.5m-4.8 42.6l3.6 11.8 4.8-2.8-8.4-9m16.4-28.6l-15.9 7.7 17.6.2-1.7-7.9m2.5 19.2l-17.7.9 16.3 7.1 1.4-8"/><path d="M49.3 74.9l-18.6 4.4 18.7 3.6-.1-8"/></g><path d="M9.3 0l1.6 1.5.7.7c2 1.7 3.5 3.8 4.9 6.1 1.4 2.4 2.2 5 2.6 7.8l.5 3.5c2.5 2.1 4.7 4.5 6.4 7.1.6-2 1.4-3.8 2.4-5.6-1.2-3.8-3.2-7.4-5.8-10.5-3.2-3.8-7.1-6.8-11.3-9.4-.3-.2-.5-.3-.8-.5-.2-.2-.3-.2-.4-.2-.3-.3-.6-.4-.8-.5M2.2 25.3l1.8.6c.2.1.5.2.7.3 2.1.6 4.1 1.7 5.9 3 1.9 1.4 3.4 3.2 4.7 5.1l4.3 6.8c.4.5.7 1.1 1.2 1.6 1.1-.6 2.2-1 3.4-1.3-2.4-1.7-3.8-4.4-4.9-7l-2.2-5.1c-.3-.2-.6-.3-.9-.5-3.8-1.8-7.8-2.8-12-3.4-.3 0-.5-.1-.8-.1H3c-.3 0-.5.1-.8 0" fill="#17a27b"/><path d="M24.1 41.5c-1.1.3-2.3.7-3.4 1.3.9 1.2 2 2.4 3.5 3 .5.2 1.1.4 1.6.4s1-.1 1.5-.4l.1-.1c-.7-.5-1-1.4-1.1-2.2v-1.1c-.8-.2-1.5-.5-2.2-.9h0" fill="#2bd62e"/><path d="M53 17.6c-.3.1-.6.1-.8.2-.1 0-.2 0-.5.1-.4.1-.6.2-.9.3-4.7 1.4-9.2 3.4-13.2 6.2-1 .7-1.9 1.5-2.8 2.3-.2 1.1-.5 2.2-.7 3.3-.6 2.5-1.3 5.2-3.1 7.1-.3.3-.6.5-.9.7v1.5c-.1.6-.3 1.3-.6 1.8 1.7.2 3.3.6 4.9 1.3.6-1 1.1-2 1.5-3.1 1.3-2.9 2.4-5.8 3.7-8.7 1.1-2.5 2.5-4.9 4.4-6.8 1.8-1.8 3.9-3.5 6.2-4.6.2-.1.5-.3.8-.5l2-1.1" fill="#17a27b"/><path d="M29.5 41c-.3.5-.7.9-1.3 1.1h-.1c.1.4.2.8.2 1.2 0 .9-.2 1.8-.9 2.3.2.1.4.3.6.4.4.2.8.2 1.2.2.8 0 1.7-.3 2.3-.8 1.2-.8 2.1-2 2.9-3.2-1.6-.6-3.3-1.1-4.9-1.2" fill="#2bd62e"/><path d="M28.1 42.2a3.08 3.08 0 0 1-1.3.3h-.6v1.1c.1.9.4 1.7 1.1 2.2.7-.6 1-1.5.9-2.3.1-.6 0-1-.1-1.3" fill="#07e22c"/><path d="M0 10.1l2.1 1.1c.3.2.7.4.9.5 2.6 1.3 4.9 3.1 7 5.2 2.2 2.2 3.8 4.8 5 7.7l2 4.7c3.6 1.9 6.8 4.6 9 8.1.3.5.6 1 .9 1.6.1-.3.2-.6.2-.9-.9-.4-1.5-1.2-1.7-2.1-.2-.6-.3-1.3-.3-2-.7-.2-1.4-.7-1.9-1.3-1.7-2-2.3-4.7-2.7-7.3l-.9-6a32.57 32.57 0 0 0-2.2-1.7c-4.5-3.2-9.6-5.4-14.8-7-.4-.1-.6-.2-1-.3-.3-.1-.4-.1-.5-.1-.5-.1-.8-.1-1.1-.2" fill="#007662"/><path d="M19.5 19.5l.9 6c.4 2.5 1 5.3 2.7 7.3.5.6 1.2 1.1 1.9 1.3v-1.6c0-1.3.2-2.6.5-3.9.1-.6.3-1.3.5-1.9-1.8-2.8-4-5.2-6.5-7.2M17 29.4l2.2 5.1c1.1 2.6 2.5 5.4 4.9 7 .8-.2 1.5-.4 2.3-.4.1-.4.2-.8.2-1.2.1-.3.1-.6.2-.9l-.9-1.6c-2.1-3.4-5.3-6.1-8.9-8" fill="#00955e"/><path d="M26.4 41c-.8.1-1.5.2-2.3.5.6.4 1.3.8 2.1.9.1-.5.2-.9.2-1.4" fill="#00c623"/><path d="M30.1 37.7c-.6.4-1.2.6-1.9.6-.2 0-.4 0-.6-.1-.1 0-.3-.1-.4-.1-.2.3-.2.6-.3.9l.6 1.4c.1.2.2.4.2.6h.2.2c.5 0 .9 0 1.3.1.3-.5.5-1.2.6-1.8s.1-1.1.1-1.6" fill="#00955e"/><path d="M28.1 40.9h-.2-.2c.2.4.3.8.4 1.2h.1c.6-.2 1-.7 1.3-1.1-.5-.1-.9-.1-1.4-.1" fill="#00c623"/><path d="M26.9 39c-.1.3-.2.6-.2.9-.1.4-.2.8-.2 1.2.4-.1.9-.1 1.3-.1-.1-.2-.1-.4-.2-.5l-.7-1.5" fill="#00ad5a"/><path d="M27.7 40.9c-.4 0-.9 0-1.3.1-.1.4-.1.9-.2 1.3h.6a3.08 3.08 0 0 0 1.3-.3c-.1-.3-.2-.7-.4-1.1" fill="#00d121"/><path d="M46.7 5.2c-.2.1-.5.2-.8.3-.1.1-.2.1-.4.2l-.8.5c-4.3 2.3-8.4 5.2-11.8 8.8-1.7 1.8-3.3 3.9-4.5 6.1.3 1.1.6 2.3.8 3.5.2 1.3.3 2.6.2 3.9 0 1.2-.1 2.5-.6 3.6v.1c.2.4.3.9.5 1.3 1.5-2.6 3.4-4.9 5.6-6.8l1.3-6.1c.6-2.7 1.5-5.3 3.1-7.6a24.03 24.03 0 0 1 5.2-5.8c0-.2.3-.5.5-.7l1.7-1.3" fill="#007662"/><path d="M28.3 21c-1 1.8-1.8 3.6-2.4 5.6.9 1.4 1.7 2.9 2.3 4.4.2.4.3.7.4 1.1V32c.4-1.1.5-2.4.6-3.6 0-1.3 0-2.6-.2-3.9-.1-1.2-.3-2.3-.7-3.5m6.5 5.6c-2.2 2-4.1 4.3-5.6 6.8l.5 1.7c.2.8.4 1.7.4 2.5.3-.2.6-.4.9-.7 1.8-1.9 2.6-4.6 3.1-7.1l.7-3.2" fill="#00955e"/><path d="M28.7 32.1c-.4 1-1.1 1.8-2.2 2H26c-.3 0-.7-.1-1-.2 0 .7.1 1.4.3 2 .3.9.9 1.8 1.7 2.1.2-.7.5-1.3.7-2l1.3-2.7c.1-.3-.1-.7-.3-1.2" fill="#006d4b"/><path d="M26 26.6c-.2.6-.3 1.3-.5 1.9-.3 1.3-.4 2.6-.5 3.9V34c.3.1.6.2 1 .2h.5c1.1-.2 1.8-1 2.2-2-.1-.4-.3-.7-.4-1.1-.6-1.7-1.4-3.1-2.3-4.5m3.2 6.8c-.5.9-1 1.8-1.3 2.7-.3.6-.5 1.3-.7 2 .1 0 .3.1.4.1.2.1.4.1.6.1.7 0 1.3-.2 1.9-.6l-.4-2.5c-.2-.6-.3-1.2-.5-1.8" fill="#008948"/><g fill="#ebb01d"><path d="M14.2 66.2l-4 4 4 3.9 4-3.9-4-4m8.6-.1l-4 4 4 3.9 4-3.9-4-4m-4.1 5.6l-4 3.9 4 4 4-4-4-3.9m-4.5-16.2l-4 3.9 4 4 4-4-4-3.9m8.7 0l-4 3.9 4 4 4-4-4-3.9m-4.3 5.3l-4 4 4 4 3.9-4-3.9-4m-4.4 26.9l-4 4 4 4 4-4-4-4m8.7 0l-4 4 4 4 4-4-4-4m-5 5.8l-4 4 4 3.9 4-3.9-4-4m.2-43.3l-3.9 3.9 3.9 4 4-4-4-3.9m-9 20.5l-3.9 4 3.9 3.9 4-3.9-4-4"/><path d="M9.5 61.3l-3.9 3.9 3.9 4 4-4-4-3.9m0 21.1l-4 3.9 4 4 3.9-4-3.9-3.9m4.1-5.7l-3.9 3.9 3.9 4 4-4-4-3.9m9.3.3l-4 3.9 4 4 4-4-4-3.9m-4.3 5.4l-4 3.9 4 4 3.9-4-3.9-3.9"/></g></svg>