<svg xmlns="http://www.w3.org/2000/svg" xml:space="preserve" width="74.9" height="113.7" style="enable-background:new 0 0 74.9 113.7"><path d="m0 28.2 5.9-11.5s18.4 7.1 41.9 43c0 0-10.2-36.8-30.8-52.2L28.1 0s24.8 28.5 37.6 84.4l-11.6 7.3c.1 0-17.8-50.1-54.1-63.5" style="fill:#17a27b"/><path d="m18.1 14.9-4.3 6.5c7.5 5.5 19.8 16.6 34 38.2 0 0-3.2-11.4-9.5-24.2-11.6-16-20.2-20.5-20.2-20.5M40.2 2.1 32.6 6C40.3 17 56 42.9 65.5 83.4l.7-.3c-6.1-52.4-26-81-26-81" style="fill:#e4ff9a"/><path d="m32.6 6-3.4 1.7c17.4 16.2 23 50.9 23 50.9-4.9-9.6-9.6-17.2-14-23.1 6.4 12.8 9.5 24.1 9.5 24.1-14.1-21.5-26.4-32.7-34-38.2l-2.3 3.4c32 16.1 43.2 63.7 43.2 63.7l10.7-5.1C56 42.9 40.3 17 32.6 6" style="fill:#7fdf6b"/><path d="M51.4 86.7c-.1.1-.2.2-.2.3 0 .2.1.4.2.6 1.1 1.9 1.7 3.9 1.9 6 .1.8.1 1.7.2 2.6.2 1.1 3.8 12.7 4.7 13.4s2.2 6 10.8 3.4c6.6-2.1 5.9-6.7 5.9-8 .1-1.3-3.9-13.6-4.5-14.8-.1-.3-.3-.6-.5-.9-.2-.4-.5-.7-.8-1.1-.4-.6-.7-1.4-.9-2.1-.3-.9-.4-1.9-.7-2.8-.1-.4-.3-1.3-.4-1.8-.2-.6-10.7 2.3-11.9 2.8-1.3.5-2.9 1.3-3.8 2.4z" style="fill:#f0eed7"/></svg>