<svg xmlns="http://www.w3.org/2000/svg" xml:space="preserve" id="Layer_1" width="97.2" height="95.4" x="0" y="0" style="enable-background:new 0 0 97.2 95.4" version="1.1"><style>.st2{fill:#fc9f4b}.st3{fill:#f14112}.st4{fill:#f9580d}</style><path d="M76.2 34.5c0 10.2-12.1 18.4-27 18.4s-27-8.2-27-18.4 12.1-18.4 27-18.4 27 8.2 27 18.4" style="fill:#f4683d"/><path d="M97.2 52.8c0 24.1-17.6 43-48 42.7C17.3 95.1 0 75.3 0 51.2c0-13 7.5-34.5 25.5-35 14.3-.5 13 12.7 25 12.7 13.1 0 10.7-13.5 22.3-12 19.7 2.6 24.4 23.8 24.4 35.9" style="fill:#fc8e2c"/><path d="M64.3 17.1c-1.2 0-2.1.4-2.9 1 1.2.4 2.3.9 3.4 1.4.7-.7 1.5-1.4 2.5-1.8-.5-.2-1.1-.3-1.7-.4-.5-.2-.9-.2-1.3-.2m-31.6-.6h-.5c-.6 0-1.1.1-1.6.2 1.8.5 3.3 1.2 4.5 2.1l2.4-.9c-1.2-.9-2.8-1.4-4.8-1.4" class="st2" style="fill:#fc9f4b"/><path d="M61.3 18c-.8.6-1.4 1.4-2 2.3.5 1.1 1 2.3 1.4 3.8 1.4-1.6 2.5-3.3 3.9-4.7-1-.5-2.1-1-3.3-1.4m-23.7-.1-2.4.9c.6.4 1.2.9 1.7 1.4.3-.8.7-1.5 1.1-2.1-.2 0-.3-.1-.4-.2" class="st3" style="fill:#f14112"/><path d="M67.2 17.6c-.9.5-1.7 1.1-2.5 1.8-1.4 1.4-2.5 3.1-3.9 4.7 2.4 8 3.1 20.4 3.1 28.5 0 23.2-5.2 41.5-14.3 42.7 20.9-.1 33.1-18.7 33.1-42.4 0-11.5-3.1-31.4-15.5-35.3m-36.6-.9c-11.5 2.2-16.4 22.2-16.4 34.6 0 23.4 11.6 42.8 33.1 44-9.6-1.7-14.8-21-14.8-44.2 0-9.6 1.3-23.7 4.3-30.8-.5-.5-1.1-1-1.7-1.4-1.2-1-2.7-1.8-4.5-2.2" class="st4" style="fill:#f9580d"/><path d="M40.6 16c-.9.1-1.7.8-2.4 1.7 1-.3 2.1-.6 3.2-.8-.2-.3-.5-.7-.8-.9" class="st2" style="fill:#fc9f4b"/><path d="M57 17.2c.1 1.7.4 3.5.9 5.5.5-.8.9-1.7 1.4-2.4-.6-1.3-1.4-2.4-2.3-3.1m-15.5-.3c-1.1.2-2.2.5-3.2.8-.1.1-.2.3-.3.5 3.5 2.7 4.9 8 8.6 10.1.8.2 1.6.4 2.5.5-.1 0-.2-.1-.3-.1-.7 0-1.3-.5-1.8-1.3-.8-.8-1.6-1.9-2.3-3.3-.2-.2-.4-.4-.5-.7v-.2c0-.1-.1-.3-.1-.6-.1-.5-.3-1.2-.6-2-.5-1.3-1.1-2.6-2-3.7" class="st3" style="fill:#f14112"/><path d="M47.3 95.2c.4.1.7.1 1.1.1h.2c.3 0 .6 0 .9-.1h-.7c-.4.1-.9 0-1.5 0m-.8-67c.9.5 2 .8 3.3.8-.3-.1-.5-.2-.8-.3-.9 0-1.7-.2-2.5-.5" class="st4" style="fill:#f9580d"/><path d="M59.4 20.3c-.5.8-.9 1.6-1.4 2.4.3 1 .6 2 1 3 0 0-.4.4-1.1 1C59 25.9 60 25 60.8 24c-.4-1.3-.9-2.6-1.4-3.7m-21.5-2.1c-.4.6-.7 1.3-1.1 2.1 3.1 2.9 5.3 6.6 9.6 8-3.5-2.1-4.9-7.4-8.5-10.1" style="fill:#ee2805"/><path d="M36.8 20.2c-3 7-4.3 21.2-4.3 30.8 0 23.2 5.2 42.6 14.8 44.2.5 0 1 .1 1.6.1h.7C58.7 94.1 64 75.8 64 52.6c0-8.2-.7-20.6-3.1-28.5-.8 1-1.8 1.9-2.9 2.7-1.3 1-3.7 2.6-6.3 2.6-.6 0-1.2-.1-1.8-.3-1.3 0-2.4-.3-3.3-.8-4.5-1.5-6.6-5.1-9.8-8.1" style="fill:#f63704"/><path d="M46.3 23s-.2-1.5-.9-3.3c-.7-1.8-1.8-4.1-3.9-5.7-1.7-1.4-3.2-2.8-4.3-4.1-.5-.7-1-1.3-1.3-2-.3-.6-.4-1.2-.4-1.8 0-.5.1-1 .4-1.5.3-.6.6-.9.9-1 .3-.2.7-.2 1-.2.4 0 .8.1 1.1.2.2.1.3.1.4.1h.1l.1-.2-.1.2.1-.2-.1.2.3-.6-.3.6.3-.6-.3.6h.1c.2.1.5.3.8.7.3.4.6.9.6 1.6 0 .2 0 .5-.1.8-.1.5-.3.9-.7 1.2-.5.5-1.2 1-2.1 1.3-.9.3-1.9.4-2.8.4-.9 0-1.7-.1-2.3-.3-1.9-.6-3.3-1.5-4.1-2.4-.8-.9-1.2-1.9-1.2-2.7 0-.9.4-1.7 1.3-2.4.5-.4.6-1 .2-1.5s-1-.6-1.5-.2c-1.4 1-2.2 2.5-2.2 4.1 0 1.4.6 2.9 1.8 4.1 1.1 1.2 2.8 2.3 5 3.1.9.3 1.9.5 3 .5 1.5 0 3.2-.3 4.6-1 .7-.4 1.4-.8 1.9-1.4.5-.6 1-1.3 1.2-2.2.1-.4.1-.9.1-1.3 0-1.5-.7-2.6-1.3-3.3-.7-.7-1.3-1-1.3-1l-.5 1 .5-.9c-.1 0-1.1-.6-2.5-.6-.6 0-1.4.1-2.1.5-.7.4-1.3 1.1-1.8 2-.4.8-.6 1.6-.6 2.4 0 .9.2 1.8.6 2.7.6 1.3 1.5 2.4 2.6 3.6 1.1 1.1 2.3 2.2 3.6 3.3 1.6 1.3 2.6 3.2 3.2 4.8.3.8.5 1.5.6 2 .1.3.1.5.1.6v.2c.1.6.6 1 1.2.9.7-.2 1.1-.7 1-1.3" style="fill:#17a27b"/><path d="M55.1 4.2c-2.6 0-5.5 2-5.6 2.1-1 3-2.1 6.7-2.9 9.9.9-.1 1.8-.1 2.7-.1 2.1 0 4.1.2 6 .5h.2c.2 0 .4 0 .6.1 0 0 .1 0 .1.1.3 0 .6.1.8.2-.2-6 1.9-9.8 1.9-9.8-.8-2.3-2.3-3-3.8-3" style="fill:#173a91"/><path d="M56.2 16.7c.3.1.6.3.8.5v-.4c-.2 0-.5 0-.8-.1m-7-.6c-.9 0-1.8 0-2.7.1-.4 1.4-.7 2.6-1 3.8.6 1.7.8 3 .8 3 .1.5-.2.9-.6 1.1.4 1.2.8 2.4 1.3 3.2.6.6 1.2 1 1.8 1.3h.1c3.9 0 3.5-11.5 6.4-12.1-2-.3-4-.4-6.1-.4" style="fill:#2c2f58"/><path d="M55.5 16.5h-.2c.3 0 .6.1.9.2 0 0-.1 0-.1-.1-.2 0-.4-.1-.6-.1" style="fill:#2a3f54"/><path d="M44.7 24c.7 1.4 1.5 2.5 2.3 3.3-.5-.8-.9-2-1.3-3.2-.1 0-.2.1-.3.1h-.1c-.2 0-.4-.1-.6-.2m10.6-7.5c-2.8.6-2.5 12.1-6.4 12.1h-.1c.1 0 .2.1.3.1.5 0 1 .1 1.5.1s1 0 1.5-.1c3-.9 4.5-3.5 5.9-6-.6-2-.8-3.9-.9-5.5-.3-.2-.6-.4-.8-.5-.4 0-.7-.1-1-.2" style="fill:#2b1d33"/><path d="M49 28.8c.3.1.5.2.8.3.8 0 1.6-.1 2.2-.3-.5 0-1 .1-1.5.1s-1-.1-1.5-.1" style="fill:#2c282f"/><path d="M58 22.8c-1.4 2.5-2.9 5.1-5.9 6 2.5-.2 4.4-1 5.9-2 .7-.5 1.1-1 1.1-1-.5-1-.9-2-1.1-3" style="fill:#2a1228"/><path d="M58 26.8c-1.5 1-3.4 1.8-5.9 2-.7.2-1.4.3-2.2.3.6.2 1.2.3 1.8.3 2.6 0 4.9-1.6 6.3-2.6" style="fill:#2c1927"/><path d="M45.5 20c-.6 2.3-.9 3.9-.9 3.9s0 .1.1.1c.2.1.4.2.6.2h.1c.1 0 .2 0 .3-.1.4-.2.7-.6.6-1.1 0-.1-.2-1.3-.8-3" style="fill:#04498e"/></svg>