<svg xmlns="http://www.w3.org/2000/svg" xml:space="preserve" width="48.7" height="44.2" style="enable-background:new 0 0 48.7 44.2"><path d="M24.3 42.4c1.8 0 2.8 1.6 4.8 1.7 9.1.7 19.5-11.4 19.5-23.2 0-6.2-4.2-12.5-9.5-14.7-5.3-2.1-13.6 1.4-14.8 2.2-1.2-.8-9.5-4.3-14.8-2.2C1.1 9.6.1 19.7.1 20.9-.9 32.8 10.9 44 19.8 44c1.7 0 2.9-1.7 4.5-1.6" style="fill:#d34124"/><path d="M12 0C7.7 0 4.5 2 4.5 2c1 2.1 2.4 3.6 3.9 4.7.3-.2.7-.3 1.1-.5 1.2-.5 2.6-.7 4-.7 4.8 0 10 2.3 10.9 2.8C20.6 1.7 15.9 0 12 0" style="fill:#17a27b"/><path d="M13.5 5.6c-1.4 0-2.7.2-4 .7-.4.1-.7.2-1.1.4 2.9 2.1 6.3 2.7 9.3 2.7 3.4 0 6.2-.8 6.7-.9v-.1c-1-.6-6.1-2.9-10.9-2.8" style="fill:#267522"/><path d="M34.5 1.6c-4.1 0-8.2 2.2-10.1 6.7 1-.6 6.1-2.8 10.8-2.8 1.4 0 2.7.2 3.9.7 4.2 1.7 7.8 6.1 9 11v-.4c0-6-4.1-12.3-9.3-14.4-1.3-.5-2.8-.8-4.3-.8" style="fill:#f3f1df"/><path d="M25.7 27.5h-.2c-.5 0-.8-.2-1.1-.4v-7c.5-1.1 1.4-1.6 2.4-1.6.3 0 .7.1 1 .2 1.2.5 2.2 2 2.2 3.4 0 1-.3 2.1-.9 3 .3.2.5.4.6.6.5.6.4 1.5-.2 2-.2.2-.5.3-.8.3-.4 0-.8-.2-1.1-.5-.1-.1-.2-.2-.3-.4-.5.2-1.1.4-1.6.4m9.5-21.9c-4.7 0-9.8 2.2-10.8 2.8v.1h-.1v29.4c1.5 1 2.8 1.5 4.7 1.7h.7c8.6 0 18.2-11.2 18.4-22.4-1.2-4.9-4.8-9.3-9-11-1.2-.5-2.5-.6-3.9-.6" style="fill:#f2c59d"/><path d="M24.4 8.4" style="fill:#bbe3c4"/><path d="M24.4 8.4v.1-.1" style="fill:#c0d59c"/><path d="M26.9 18.5c-1 0-2 .5-2.4 1.6v7c.3.2.7.4 1.1.4h.2c.5 0 1-.2 1.6-.5-.7-1.1-2-3.5-1.4-3.9.1 0 .1-.1.2-.1.7 0 2.2 1.2 3.1 2 .6-.9.9-2 .9-3 0-1.4-1-2.9-2.2-3.4-.4 0-.8-.1-1.1-.1" style="fill:#fceed3"/><path d="M29.2 25.1c-.5.8-1.2 1.5-1.9 1.9.1.2.2.3.3.4.3.3.7.5 1.1.5.3 0 .6-.1.9-.3.6-.5.7-1.4.2-2-.1-.1-.3-.3-.6-.5" style="fill:#5972a8"/><path d="M26.1 23.1c-.1 0-.2 0-.2.1-.5.4.7 2.8 1.4 3.9.7-.4 1.4-1.1 1.9-1.9-.9-.9-2.5-2.1-3.1-2.1" style="fill:#5d8ad8"/></svg>