<svg xmlns="http://www.w3.org/2000/svg" width="45.5" height="42.9" xmlns:v="https://vecta.io/nano"><path d="M36.5 11.9c-.6-.8-1.5-1.2-2.5-1.2-5.6-6-16.1-6.5-24.5-.7s-11.7 15.8-8 23.2c-.4.8-.4 1.9.2 2.7.6.9 1.7 1.3 2.7 1.1 5.7 5.3 15.7 5.5 23.7-.1S39.5 22 36.5 14.7c.6-.7.6-1.9 0-2.8" fill="#fce03d"/><path d="M21.7 0C15.9 0 11 2 11 2c1.4 2.1 2.9 3.7 4.3 5 2.3-.8 4.6-1.2 6.8-1.2 4 0 7.8 1.2 10.7 3.7 1.2-.5 2.1-1 2.7-1.4l-2.7-.7c-.5-.1-.8-.7-.7-1.2s.5-.7 1-.7h.3l1.8.5c-3.7-4.7-8.9-6-13.5-6" fill="#17a27b"/><path d="M22.2 5.9c-2.2 0-4.5.4-6.8 1.2 3.5 3 7.2 4 10.4 4 2.8 0 5.2-.7 7.1-1.5-2.9-2.4-6.7-3.7-10.7-3.7" fill="#2de93a"/><path d="M41.1 14.1c-1.5.6-2.8 1.3-4 2.2 2 7-1.4 15.6-8.9 20.8 0 0-.1.1-.2.1 0 3.4.3 5.8.3 5.8C48 35.5 44.5 19.4 43 14.8l-.1 1.2c-.1.5-.5.9-1 .9h-.1c-.6-.1-.9-.5-.9-1.1l.2-1.7" fill="#17a27b"/><path d="M37.1 16.2c-7.5 5.3-9 14.8-9.1 20.9 0 0 .1-.1.2-.1 7.5-5.2 10.9-13.7 8.9-20.8" fill="#2de93a"/><path d="M44.5 5.7c-.2 0-.4 0-.6.2l-3.1 2c.2.2.3.5.2.8-.1.5-.5.7-1 .7h-.3l-.7-.2-3.2 2.1c.3.2.5.4.7.7s.3.6.4 1l4.6-3 .1-1.3c.1-.5.5-.9 1-.9h.1c.4 0 .8.4.9.8l1.5-1c.5-.3.6-.9.3-1.4-.2-.4-.6-.5-.9-.5" fill="#007662"/><path d="M35.8 11.2l-.9.6c-.5.3-.6.9-.3 1.4.2.3.5.5.8.5.2 0 .4 0 .6-.2l.9-.6c-.1-.3-.2-.7-.4-1s-.4-.5-.7-.7" fill="#006817"/><path d="M35.2 6.1c.4.5.8 1 1.1 1.6l-.8.5 3.4.9 1.9-1.3c-.1-.2-.3-.3-.6-.4l-5-1.3" fill="#007662"/><path d="M33 5.5c-.4 0-.8.3-1 .7-.1.5.2 1.1.7 1.2l2.7.7.8-.5c-.3-.6-.7-1.1-1.1-1.6l-1.9-.5H33" fill="#004b2f"/><path d="M40.9 7.9L39 9.2l.8.2h.3c.4 0 .8-.3 1-.7 0-.3-.1-.6-.2-.8" fill="#003726"/><path d="M43.6 8.5l-2.1 1.4-.4 4.2c.5-.2 1-.4 1.5-.5l.5 1.3.6-6c-.1-.2-.1-.3-.1-.4" fill="#007662"/><path d="M42.6 13.5c-.5.2-1 .3-1.5.5l-.2 1.8c-.1.5.3 1 .9 1.1h.1c.5 0 .9-.4 1-.9l.1-1.2c-.3-.8-.5-1.3-.4-1.3" fill="#004b2f"/><path d="M42.6 7.7c-.5 0-.9.4-1 .9l-.1 1.3 2.1-1.4c-.1-.4-.4-.7-.9-.8h-.1" fill="#003726"/></svg>