<svg xmlns="http://www.w3.org/2000/svg" width="76.3" height="94.5" xmlns:v="https://vecta.io/nano"><defs><path id="A" d="M50.3 0c-.6 0-1.1.1-1.5.4-.7.4-1 .5-1.5 2-.4 1.1-.2 1.3-.5 2-.4.8-.9 1.1-1.6 1.1h-.4c-.7-.1-1.5-1.1-2.1-1.3-.1 0-.3-.1-.4-.1-.8 0-1.6.8-2.3 1.7.9.3 1.7.8 2.5 1.3.8.6 1.4 1.4 2.2 2s1.7.8 2.7.8h.1c2 0 4-.9 6-1h.4c1.6 0 3.5.6 3.2 2.6-.2 1.1-.8 2.2-1.2 3.2l-1.5 3.4c-.4 1-.9 2.2-.1 3.2.4.5.9.8 1.3 1.2l.6-.6c1.2-1 2.7-1.6 4.2-1.8.6-.1 1.1-.1 1.7-.1s1.2 0 1.8.1c.3-1.2.4-2.5.3-3.7-.2-3.5-1.9-6.9-4.7-8.1-.7-.3-1.6-.5-2.3-.8-.7-.4-1.3-1-1.7-1.9L54 2.1C53.5.9 51.8 0 50.3 0"/></defs><clipPath id="B"><use href="#A"/></clipPath><g clip-path="url(#B)"><path d="M39.8 0h24.4v22.4H39.8z" fill="#68deb7"/></g><path d="M36.5 5.2c-1.6 0-3.2.4-4.6 1-3.5 1.6-5.9 4.9-7.1 8.4-.2.4-.3.8-.4 1.3s-.2 1.1-.5 1.4a1.08 1.08 0 0 1-.7.3c-.5 0-1.2-.3-1.6-.5-.7-.3-1.5-.7-2.3-.7h-.1c-.8 0-1.6.4-2.2.9-1.5 1.2-2.1 3.1-2.5 4.9-.4 1.9-.5 3.9-1 5.8-.3.9-.6 1.8-1.2 2.6s-1.3 1.5-2.1 2.1c-1.5 1.2-3 2.4-3.6 4.3-.8 1.9-.6 4-.3 5.9.3 2.2.6 4.4.5 6.6-.2 4.7-1.7 9.2-3.2 13.6-2.7 8.3-5.6 17.6-1.7 26 .8 1.7 1.1 2.6 2.5 3.9.1.1.5.6 1.3 1 .1.1.8.4.9.4.4 0 .7.1.9.1.5 0 .7-.1 1.3-.2 1-.1 1.9-.4 2.8-.8-1.6-.4-2.8-1.1-3.7-2.6-.6-.3-.9-.9-1.1-1.5-.1-.8 0-1.5.1-2.2.1-1.2.5-2.3.8-3.5s.7-2.4 1.1-3.5c.3-.9.7-1.9 1-2.8 0-.7 0-1.3.1-2 .4-3.9 1.8-7.6 3.5-11 3.3-6.8 8-12.6 11-19.7 1.4-3.4 2.5-7 2.6-10.7 0-1.8-.2-3.6-.3-5.3s0-3.5.8-5.1c1.8-3.2 5.5-3.5 7.7-6.4 1.1-1.5 1.5-3.5 1.9-5.4.4-1.8.8-3.5 1.9-5 .3-.4.5-.8.9-1.2-1.2-.2-2.3-.4-3.4-.4" fill="#3ab08f"/><path d="M22.1 57.1c-1.8 3-3.5 6.1-4.9 9.4 1.2-1.8 2.3-3.6 3.2-5.4.7-1.3 1.3-2.7 1.7-4M39.8 5.7l-.9 1.2c-1 1.5-1.5 3.2-1.9 5-.4 1.9-.8 3.9-1.9 5.4-2.1 2.8-5.8 3.1-7.7 6.4-.9 1.5-1 3.3-.8 5.1.1 1.8.4 3.5.3 5.3-.1 3.7-1.2 7.3-2.6 10.7-3 7-7.7 12.9-11 19.6-1.7 3.4-3 7.1-3.5 11-.1.7-.1 1.3-.1 2 .1-.2.2-.4.2-.6 3.5-8.7 8.5-16.7 12.9-25 .2-.4.5-.8.7-1.3l.3-.6c4.3-8.4 7.9-17.1 10.8-26.1v-.1h0a.55.55 0 0 1 .5-.3c.3 0 .5.2.4.5-.4 1.3-.7 2.6-1.1 3.9l-2.1 7.8c-.7 2.5-1.3 5-2.2 7.4-.5 1.3-1.2 2.6-1.8 3.9.1 0 .2-.1.4-.2 1.7-.8 3.1-1.7 3.9-3.4.8-1.8 1-3.8 2-5.5.8-1.5 2.1-2.7 3.8-2.9 1-.1 1.8-.2 2.6-.8.6-.5 1.1-1.2 1.5-1.9.8-1.4 1.2-3 1.9-4.5.7-1.3 1.6-2.6 3-3.3.5-.2 1.1-.4 1.6-.4h.4c.9.1 1.7.6 2.5.6h.3c1.3-.2 2.2-1.4 3.1-2.3-.5-.4-1-.7-1.3-1.2-.8-1-.3-2.2.1-3.2.5-1.2 1-2.3 1.5-3.4.4-1 1-2.1 1.2-3.2.3-2-1.6-2.6-3.2-2.6h-.4c-2 .1-4 1-6 1h-.1c-1 0-1.9-.2-2.7-.8s-1.5-1.4-2.2-2c-.7-.4-1.6-.9-2.4-1.2" fill="#189967"/><path d="M63.8 20c-.5 2.4-1.6 4.6-2.9 6.5-.2.3-.5.7-.8 1s-.7.7-.8 1.2c-.2.8.6 1.4 1.1 1.8.6.5 1.1.9 1.5 1.7.3.7.3 1.5.2 2.3-.3 1.9-1.4 3.4-2.5 4.6-1.2 1.3-2.6 2.4-3.7 3.9-.6.7-1.1 1.5-1.4 2.3-.5.8-.6 1.7-.8 2.7-.3 1.9-.6 3.7-1.7 5.2s-2.6 2.4-4.1 3.2c-1.7.9-3.4 1.8-4.9 3-3.2 2.6-5.9 6.2-8.4 9.7-3.5 4.9-7.4 10-12.2 12.9-.2.3-.3.6-.5.9-2 3.4-4.4 6.7-7.7 9.1-.9.6-1.8 1.2-2.8 1.6.5.1 1 .2 1.6.2h.5c3.6 0 6.3-3.1 8.6-5.4l10.1-9.9c1.2-1.2 2.6-2.7 4.3-3 .2 0 .4-.1.6-.1.3 0 .7.1 1 .1.3.1.7.1 1 .1.8 0 1.5-.4 2-1.1.5-.8.9-1.6 1.6-2.3a6.08 6.08 0 0 1 2.4-1.5c1.7-.6 3.5-.5 5.2-1.1 3.8-1.3 4-5.5 5.8-8.5.9-1.6 2.3-2.9 3.9-3.8 1.7-.8 3.4-.9 5.3-1.2 1.7-.3 3.3-1 4.2-2.5 1-1.5 1.2-3.4 1.4-5.2.3-2 .6-3.9 1.8-5.7 1.1-1.7 2.4-3.2 3.1-5.1.5-1.4.7-3 .2-4.4-.2-.7-.6-1.3-1.1-1.7-.6-.5-1.3-.8-1.9-1.2-.3-.2-.6-.3-.7-.6-.3-.5.1-1 .3-1.5.3-.7.3-1.5 0-2.3-.5-1.5-1.7-2.8-3-3.6-1.8-1.2-3.8-2-5.8-2.3" fill="#007662"/><path d="M62 19.9c-.6 0-1.1 0-1.7.1-1.5.2-3 .8-4.2 1.8l-.6.6c.2.2.4.3.7.5 1.3 1.3 1.4 3.1.8 4.8-.6 1.8-1.9 3.2-3.2 4.4-1.4 1.3-3 2.7-3.6 4.6-1.2 3.6 1 7.6-.7 11.1-.8 1.7-2.4 2.7-4 3.4-1.7.8-3.5 1.3-5.1 2.3-3.3 1.9-5.9 4.8-8 8C28.2 68 26 75.4 22.4 82c4.8-2.9 8.7-8.1 12.2-12.9 2.5-3.5 5.2-7.1 8.4-9.7 1.6-1.3 3.2-2.1 4.9-3 1.5-.8 3-1.7 4.1-3.2s1.4-3.4 1.7-5.2c.1-1 .3-1.9.7-2.8s.8-1.6 1.4-2.3c1.1-1.4 2.5-2.5 3.7-3.9 1.2-1.3 2.2-2.8 2.5-4.6.1-.8.1-1.6-.2-2.3s-.9-1.2-1.5-1.7c-.5-.4-1.3-.9-1.1-1.8.1-.5.5-.8.8-1.2.3-.3.5-.7.8-1 1.3-1.9 2.4-4.1 2.9-6.5H62" fill="#00bb7d"/><path d="M22.4 82c-1.7 1.1-3.6 1.8-5.6 2.1l-2.1.2c-.5 0-1-.1-1.7-.2-.1 0-.5-.1-1-.4l-.9 3.2c-.3 1-.5 2.1-1.1 3-.4.6-1 1-1.6 1-.1.1-.3.1-.4.1s-.1 0-.2-.1c.9 1.5 2.1 2.3 3.7 2.6 1-.4 1.9-1 2.8-1.6 3.2-2.4 5.7-5.6 7.7-9.1.1-.2.2-.5.4-.8" fill="#00905f"/><path d="M24 50l-.3.6.3-.6m31.4-27.6c-.9.9-1.8 2.1-3.1 2.3H52c-.9 0-1.7-.5-2.5-.6h-.4c-.6 0-1.1.1-1.6.4-1.4.7-2.3 2-3 3.3-.7 1.4-1.1 3-1.9 4.5-.4.7-.9 1.4-1.5 1.9-.8.6-1.6.7-2.6.8-1.8.2-3 1.4-3.8 2.9-.9 1.7-1.2 3.7-2 5.5s-2.2 2.7-3.9 3.4c-.1 0-.2.1-.4.2-1.5 2.9-3.4 5.7-5.2 8.4l-1.1 1.8c-.4 1.3-1 2.7-1.6 3.9-.9 1.9-2.1 3.7-3.2 5.4-.3.7-.6 1.3-.8 2-1.9 4.8-3 9.8-4.3 14.8 0 .2-.1.4-.1.5.5.3.8.4 1 .4.7.2 1.2.2 1.7.2.6 0 1.2-.1 2.1-.2 2-.3 3.9-1.1 5.6-2.2 3.6-6.6 5.8-14 10-20.4 2.1-3.2 4.7-6.1 8-8 1.6-.9 3.4-1.5 5.1-2.3 1.6-.7 3.2-1.7 4-3.4 1.7-3.5-.5-7.5.7-11.1.6-1.9 2.2-3.3 3.6-4.6s2.6-2.6 3.2-4.4c.6-1.6.5-3.5-.8-4.8-.4-.2-.6-.4-.9-.6" fill="#008b4d"/><path d="M8.8 80.2c-.5 1.1-.8 2.3-1.1 3.5l-.9 3.5c0-.2.1-.3.1-.5.2-1.1.5-2.3.9-3.4l1-3.1" fill="#00905f"/><path d="M35.2 23.4a.55.55 0 0 0-.5.3h0v.1c-2.8 9-6.4 17.7-10.8 26.1.2-.4.5-.7.8-1 1-1 2.3-1.5 3.6-2 .7-1.3 1.3-2.6 1.8-3.9.9-2.4 1.6-4.9 2.2-7.4l2.1-7.8c.4-1.3.7-2.6 1.1-3.9.3-.3 0-.5-.3-.5" fill="#8ff0cc"/><path d="M9.8 77.4c-.4.9-.7 1.9-1 2.8.3-.8.7-1.6 1-2.3v-.5" fill="#95f3d2"/><path d="M23.7 50.6l-.7 1.3c-4.4 8.3-9.4 16.3-12.9 25-.1.1-.2.3-.3.5v.5c2-4 4.9-7.7 7.4-11.4 1.4-3.2 3-6.4 4.9-9.4.3-.9.5-1.8.7-2.7.2-1.3.3-2.6.9-3.8" fill="#8ff0cc"/><path d="M6.8 87.2c-.1.7-.3 1.5-.1 2.2.1.6.5 1.3 1.1 1.5-.3-.4-.5-1-.7-1.6-.1-.3-.3-.9-.3-1.7v-.4" fill="#95f3d2"/><path d="M28.4 46.9c-1.3.5-2.6 1.1-3.6 2-.3.3-.6.7-.8 1l-.3.6c-.5 1.2-.7 2.5-.9 3.9l-.7 2.7 1.1-1.8 5.2-8.4" fill="#8ceec8"/><path d="M9.8 77.9c-.4.8-.7 1.5-1 2.3-.4 1-.7 2-1 3.1l-.9 3.4c0 .2-.1.3-.1.5v.5c0 .8.1 1.4.3 1.7.2.6.5 1.1.7 1.6H8c.1 0 .3.1.4.1a1.78 1.78 0 0 0 1.6-1c.6-.9.8-2 1.1-3l.9-3.2c-.1 0-.1-.1-.2-.1-.1-.1-.6-.4-.6-.5-.6-1-.5-1.1-.8-1.9-.3-1.2-.5-2.3-.6-3.5" fill="#8ceecb"/><path d="M17.3 66.5c-2.5 3.8-5.4 7.4-7.4 11.4 0 1.1.2 2.3.6 3.3.3.8.2.9.8 1.9.1.1.5.5.6.5.1.1.1.1.2.1 0-.2.1-.4.1-.5 1.3-5 2.4-10 4.3-14.8.2-.6.5-1.3.8-1.9" fill="#8ceec8"/></svg>