<svg xmlns="http://www.w3.org/2000/svg" xml:space="preserve" width="47.8" height="64.6" style="enable-background:new 0 0 47.8 64.6"><path d="M43.9 40.5C29.3 69.1 2.6 69.3 3.9 56.6c1.9-18.8-2.8-22.8 1.9-34.9C13.2 2.7 32.1 5 38.1 8.9c5.7 3.8 15.1 13.5 5.8 31.6" style="fill:#ffaa30"/><path d="M21.2 0C9.9 0 0 8.8 0 8.8c3.6 2.7 7 4.4 10.2 5.3 4.9-5.9 11.5-7.8 17.2-7.8 1.9 0 3.8.2 5.4.6 1.1-1.2 1.6-2 1.6-2C30.1 1.3 25.6 0 21.2 0" style="fill:#17a27b"/><path d="M27.4 6.2c-5.7 0-12.3 2-17.2 7.8 2 .6 3.9.8 5.8.8 8.3 0 14.1-5.1 16.8-8.1-1.7-.3-3.5-.5-5.4-.5" style="fill:#2ec12e"/><path d="M37 4.5c-1.6.8-2.4 2-2.7 2.6 1.6.5 2.9 1.1 3.9 1.7.1.1.3.2.4.3.3-2 1.7-2.7 1.7-2.7.4-1.7-3.2-1.8-3.3-1.9" style="fill:#173a91"/><path d="M34.2 7.2c-.1.3-.2.5-.2.5-1.2 2.5 4.4 2.9 4.4 2.9 0-.5 0-.9.1-1.3-.1-.1-.3-.2-.4-.3-1-.7-2.3-1.3-3.9-1.8" style="fill:#2e4d4d"/></svg>