<svg xmlns="http://www.w3.org/2000/svg" xml:space="preserve" width="30.8" height="29.1" style="enable-background:new 0 0 30.8 29.1"><path d="M11.7 1.1C9.8-.4 6.9-.3 4.9 1 2.8 2.2 1.4 4.4.7 6.7c-1.9 5.9.2 12.9 5 16.8S17.8 28 23.2 25c1.5-.9 2.9-2.1 3.6-3.7.5-1.2.6-2.4.5-3.7-.3-4.9-3.1-8.2-8.1-8.2-1.9 0-3-.2-4.1-2-1.3-2.1-1.4-4.7-3.4-6.3" style="fill:#852714"/><path d="M23.1 10.3c2.5 1.3 4 4 4.2 7.3.1 1.2 0 2.5-.5 3.7-.7 1.6-2.1 2.8-3.6 3.7-2.3 1.3-5 2-7.6 2-3.5 0-7.1-1.2-9.9-3.4-.3-.3-.7-.6-1-.9 1.6 2.3 3.8 4.2 6.4 5.3 1.9.8 3.9 1.2 6 1.2 4.2 0 8.3-1.6 11.2-4.6 1.2-1.2 2.3-2.8 2.5-4.5.2-1.2-.1-2.5-.5-3.7-1.3-3.7-3.8-6-7.2-6.1" style="fill:#fabdaa"/><path d="M8.8 4.3c-1.7 0-3.5.8-4.7 2.1-1.6 1.8-2.3 4.2-2.4 6.6-.1 3.4 1 6.8 3 9.6.3.3.7.6 1 .9 2.8 2.2 6.3 3.4 9.9 3.4 2.7 0 5.3-.7 7.6-2 1.5-.9 2.9-2.1 3.6-3.7.5-1.2.6-2.4.5-3.7-.2-3.4-1.6-6-4.2-7.3h-.3c-.8 0-1.7.1-2.6.4-.8.2-1.4.4-2 .4-.8 0-1.6-.3-2.5-1.1-1.8-1.7-2.6-4.2-5-5.2-.6-.3-1.2-.4-1.9-.4" style="fill:#b64426"/></svg>