<svg xmlns="http://www.w3.org/2000/svg" width="61.4" height="66" xmlns:v="https://vecta.io/nano"><g fill="#c66f34"><path d="M57.5,32.2C57.5,48.1,44.6,61,28.7,61S0,48.1,0,32.2S12.9,3.5,28.7,3.5S57.5,16.4,57.5,32.2"/><path d="M22.2 4.7C21 3 20.5 2.2 17.4.9c2.7 0 5.6.4 7.9 1.7C27.6.7 30.3.1 33.2 0c-2.2 1.3-4.1 3.1-5.7 5.1-1-.2-3 .3-3.9.1a2.44 2.44 0 0 0-1.2 0c-.3.1.7.2.8.4"/></g><path d="M54.7 19.8c1.8 3.8 2.8 8 2.8 12.4C57.5 48.1 44.6 61 28.8 61c-6.6 0-12.7-2.2-17.5-6 5.1 6.7 13.2 11 22.2 11 15.4 0 28-12.5 28-28-.1-6.9-2.7-13.3-6.8-18.2" fill="#fffce2"/><path d="M32.4 51c-.9 0-1.8-.1-2.7-.3-7.2-1.6-11.5-9.3-9.8-17.2 1.5-6.9 7.3-11.7 13.5-11.7.9 0 1.8.1 2.7.3 7.2 1.6 11.5 9.3 9.8 17.2-1.6 7-7.3 11.7-13.5 11.7m1-41c-15.4 0-28 12.5-28 28 0 6.4 2.2 12.3 5.8 17 4.8 3.8 10.9 6 17.5 6 15.9 0 28.7-12.9 28.7-28.7 0-4.5-1-8.7-2.8-12.4-5.1-6.1-12.7-9.9-21.2-9.9" fill="#f7e7b3"/><path d="M33.5 21.9c-6.2 0-11.9 4.8-13.5 11.7-1.8 7.9 2.6 15.6 9.8 17.2.9.2 1.8.3 2.6.3 6.2 0 11.9-4.8 13.5-11.7 1.8-7.9-2.6-15.6-9.8-17.2-.9-.2-1.8-.3-2.6-.3" fill="#f7d16e"/></svg>