<svg xmlns="http://www.w3.org/2000/svg" width="71.7" height="79.8" xmlns:v="https://vecta.io/nano"><path d="M33.5 0C15 0 0 16.9 0 37.8c0 13.6 6.4 25.5 15.9 32.1C9.3 63 5.2 53.2 5.2 42.3c0-20.7 14.9-37.6 33.3-37.6 7.1 0 13.7 2.5 19.1 6.8C51.4 4.4 42.9 0 33.5 0" fill="#4c9f91"/><path d="M57.5 11.5c5.8 6.8 9.4 16.1 9.4 26.3 0 20.9-15 37.8-33.5 37.8-6.5 0-12.5-2.1-17.6-5.6 5.9 6.2 13.9 9.9 22.6 9.9 18.4 0 33.3-16.8 33.3-37.6 0-12.8-5.6-24-14.2-30.8" fill="#e0ff8c"/><path d="M40.5 64.1c-4.6 0-2.4-12.3-1.4-21.3 1.6-14 1.8-20.5 4.8-20.5 1.3 0 3.1 1.2 5.7 3.5 3.3 2.8 6.4 9.4 5 18.8s-5.2 13.9-9.9 17.6c-1.7 1.3-3.1 1.9-4.2 1.9m-9.3-3.5c-1.1 0-2.5-.9-4.2-3.1-3.7-4.7-6.4-9.9-5.6-19.4S26.8 23 30.6 21c2.7-1.4 4.5-2.1 5.8-2.1 3.7 0 2.3 6.3.5 21.2-1 8.6-1.7 20.5-5.7 20.5m7.2-55.9C20.1 4.7 5.2 21.5 5.2 42.3c0 10.9 4.1 20.7 10.7 27.6 5.1 3.6 11.1 5.6 17.6 5.6C52 75.5 67 58.6 67 37.7c0-10.2-3.6-19.5-9.4-26.3-5.5-4.2-12.1-6.7-19.2-6.7" fill="#b3e770"/><path d="M36.4 18.9c-1.3 0-3.1.7-5.8 2.1-3.8 2-8.4 7.6-9.2 17.1s1.9 14.7 5.6 19.4c1.7 2.1 3.1 3.1 4.2 3.1 4 0 4.7-11.9 5.7-20.5 1.8-14.9 3.2-21.2-.5-21.2m7.5 3.4c-3 0-3.2 6.5-4.8 20.5-1 9-3.2 21.3 1.4 21.3 1 0 2.4-.6 4.2-2.1 4.7-3.7 8.5-8.2 9.9-17.5s-1.8-15.9-5-18.8c-2.6-2.2-4.4-3.4-5.7-3.4" fill="#e0f5a8"/><g fill="#fc8e2c"><path d="M45.4 37.2c.9-1 2.1-1.6 3.4-1.7h.3l.2.2c.1.2.3.4.2.6s-.2.3-.4.5c-.8.5-1.8.9-2.7 1.2-.3.1-1.1.5-1.3.1-.3-.2.1-.6.3-.9h0zm2.4 2.1c1.1-.6 2.5-.8 3.8-.5.1 0 .2.1.3.1s.1.2.1.2c.1.2.1.5 0 .7s-.3.2-.5.3c-1 .2-2 .3-3 .3-.3 0-1.2.1-1.3-.3-.2-.4.3-.7.6-.8h0zm-5-7.9c.9-1 2.1-1.6 3.4-1.7h.3l.2.2c.1.2.3.4.2.6s-.2.3-.4.5c-.8.5-1.8.9-2.7 1.2-.3.1-1.1.5-1.3.1-.4-.2 0-.6.3-.9h0zm2.4 2.1c1.1-.6 2.5-.8 3.8-.5.1 0 .2.1.3.1s.1.2.1.2c.1.2.1.5 0 .7s-.3.2-.5.3c-1 .2-2 .3-3 .3-.3 0-1.2.1-1.3-.3-.3-.4.3-.7.6-.8h0z"/><use href="#B"/><use href="#B" x="1.9" y="3.1"/><path d="M44.8 47.3c1.3-.2 2.6 0 3.7.7.1.1.2.1.2.2s.1.2.1.3c0 .2 0 .5-.2.6s-.4.1-.6.1c-1-.1-2-.3-2.9-.7-.3-.1-1.1-.3-1.2-.7-.1-.3.5-.4.9-.5h0zm.7 3.1c1.3.2 2.5.9 3.3 1.9.1.1.1.2.2.3 0 .1 0 .2-.1.3-.1.2-.2.5-.4.5-.2.1-.4 0-.6-.1-.9-.4-1.8-.9-2.5-1.6-.2-.2-1-.6-.9-1 0-.4.6-.3 1-.3zm-3.3.4c1.2.5 2.2 1.5 2.7 2.7 0 .1.1.2.1.3s-.1.2-.1.3c-.1.2-.3.4-.5.4s-.4-.1-.6-.2c-.8-.6-1.5-1.4-2.1-2.2-.2-.3-.8-.9-.6-1.2.3-.4.8-.2 1.1-.1h0zm-.3 3.6c1.2.5 2.2 1.5 2.7 2.7 0 .1.1.2.1.3s-.1.2-.1.3c-.1.2-.3.4-.5.4s-.4-.1-.6-.2c-.8-.6-1.5-1.4-2.1-2.2-.2-.3-.8-.9-.6-1.2.2-.5.8-.2 1.1-.1h0zM30.5 46c-.9.9-2.1 1.5-3.4 1.6h-.3l-.2-.2c-.1-.2-.3-.4-.2-.6 0-.2.2-.3.4-.4a15.95 15.95 0 0 1 2.7-1.2c.3-.1 1.1-.4 1.3-.1.3.2-.1.6-.3.9h0zm-2.4-2.1c-1.1.6-2.5.8-3.8.4-.1 0-.2-.1-.3-.1 0-.1 0-.2-.1-.3-.1-.2-.1-.5 0-.7s.3-.2.5-.3c1-.2 2-.3 3-.2.3 0 1.2-.1 1.3.3.2.5-.3.7-.6.9h0zm5 7.9c-.9.9-2.1 1.5-3.4 1.6h-.3l-.2-.2c-.1-.2-.3-.4-.2-.6 0-.2.2-.3.4-.4a15.95 15.95 0 0 1 2.7-1.2c.3-.1 1.1-.4 1.3-.1.3.2-.1.7-.3.9h0zm-2.4-2.1c-1.1.6-2.5.8-3.8.4-.1 0-.2-.1-.3-.1-.1-.1-.1-.2-.1-.2-.1-.2-.1-.5 0-.7s.3-.2.5-.3c1-.2 2-.3 3-.2.3 0 1.2-.1 1.3.3.2.4-.3.7-.6.8h0zm-.2-8c-1.3.3-2.6.1-3.7-.6-.1-.1-.2-.1-.2-.2s0-.2-.1-.3c0-.2 0-.5.2-.7.2-.1.4-.1.6-.1 1 0 2 .2 3 .5.3.1 1.1.2 1.2.6-.1.6-.7.7-1 .8zm-1.9-3.1a5.23 5.23 0 0 1-3.7-.5c-.1 0-.2-.1-.2-.2s0-.2-.1-.3c0-.2 0-.5.2-.7.2-.1.4-.1.6-.1 1 0 2 .2 3 .5.3.1 1.1.2 1.2.6-.1.5-.7.6-1 .7zm2.7-2.7c-1.3.2-2.6-.1-3.7-.8-.1-.1-.2-.1-.2-.2v-.3c0-.2 0-.5.2-.6s.4-.1.6-.1c1 .1 2 .3 2.9.7.3.1 1.1.3 1.1.7s-.6.5-.9.6h0zm-.7-3.1c-1.3-.2-2.5-.9-3.2-1.9-.1-.1-.1-.2-.1-.3v-.3c.1-.2.2-.5.4-.5.2-.1.4 0 .6.1a10.68 10.68 0 0 1 2.5 1.6c.2.2 1 .7.8 1-.1.4-.7.3-1 .3z"/><use href="#C"/><use href="#C" x="0.4" y="-3.6"/></g><defs ><path id="B" d="M45.5 41.5c1.2-.3 2.6-.1 3.8.5.1.1.2.1.2.2.1.1.1.2.1.3 0 .2 0 .5-.2.7-.2.1-.4.1-.6.1-1 0-2-.2-2.9-.5-.3-.1-1.1-.2-1.2-.6-.1-.5.5-.6.8-.7z"/><path id="C" d="M33.8 32.4c-1.2-.5-2.1-1.5-2.7-2.7 0-.1-.1-.2-.1-.3s.1-.2.1-.3c.1-.2.3-.4.5-.4s.4.1.6.3c.8.7 1.5 1.4 2 2.2.2.3.8.9.5 1.2 0 .4-.6.1-.9 0z"/></defs></svg>