<svg xmlns="http://www.w3.org/2000/svg" width="71" height="69.4" xmlns:v="https://vecta.io/nano"><path d="M39.8 40.3C25 57.6 9.1 68.2 4.3 64.1-.4 60 7.8 42.7 22.6 25.5S53.4-2.4 58.1 1.6c4.8 4.1-3.4 21.5-18.3 38.7" fill="#f1c630"/><path d="M71,24.4c-11-1.9-55,3.3-67.4,40.8c0,0,5.1,10.9,19.7-2.2C34.6,52.8,42.4,28.3,71,24.4" fill="#007662"/><path d="M25 0c.2 17.9-15.1 36.1-20.8 44.7-8.1 12.3-2 22.1-2 22.1l1.7-1.1c-.2-.3-.3-.5-.3-.5.1-.4.3-.9.5-1.3-4.1-4.6 4-21.5 18.6-38.4 1.6-1.9 3.3-3.7 4.9-5.5.2-9.8-1.7-17.6-2.6-20" fill="#17a27b"/><path d="M27.6 20a65.99 65.99 0 0 0-4.9 5.5C8.1 42.4-.1 59.3 4 63.9 8.4 51.7 16.2 43 25 37c1.7-5.9 2.4-11.7 2.6-17" fill="#2bd62e"/><path d="M25 37C16.2 43 8.4 51.7 4 63.9c-.2.4-.3.9-.5 1.3 0 0 .1.2.3.5C15.7 57.8 21.9 47.3 25 37" fill="#009c5e"/><g fill="#ebb21e"><use href="#B"/><use href="#C"/><use href="#D"/><use href="#D" x="-1" y="-3.8"/><use href="#E"/><use href="#D" x="-9.9" y="3"/><use href="#B" x="2.1" y="5.7"/><use href="#F"/><use href="#C" x="-1.2" y="6.7"/><use href="#F" x="0.7" y="-3.3"/><path d="M45.7 19.5c-.2 0-.4.1-.6.3l-.6.7c-.3.3-.2.8.1 1.1l1.1 1c.2.1.3.2.5.2s.4-.1.6-.3l.6-.7c.3-.3.2-.8-.1-1.1l-1.1-1c-.2-.2-.3-.2-.5-.2"/><use href="#D" x="-7.1" y="16.5"/><use href="#B" x="-5.4" y="10.6"/><use href="#B" x="-2.2" y="9.4"/><use href="#B" x="-8.7" y="11.6"/><use href="#E" x="-12" y="12.7"/><path d="M40.5 22.8c-.2 0-.4.1-.6.3l-.6.7c-.3.3-.2.8.1 1.1l1.1 1c.1.1.3.1.5.1s.4-.1.6-.3l.6-.7c.3-.3.2-.8-.1-1.1L41 23c-.1-.1-.3-.2-.5-.2"/><use href="#B" x="-6.6" y="17.3"/><use href="#D" x="-12" y="12.6"/><use href="#C" x="-12.7" y="15.9"/><use href="#D" x="-22.6" y="18.9"/><use href="#C" x="-15.4" y="13.6"/><use href="#D" x="-22.5" y="22.7"/></g><defs ><path id="B" d="M43.8 6.5c-.2 0-.4.1-.6.3l-.6.7c-.3.3-.2.8.1 1.1l1.1 1c.2.1.3.2.5.2s.4-.1.6-.3l.6-.7c.3-.3.2-.8-.1-1.1l-1.1-1c-.1-.1-.3-.2-.5-.2"/><path id="C" d="M46.6 8.9c-.2 0-.4.1-.6.3l-.6.7c-.3.3-.2.8.1 1.1l1.1 1c.2.1.3.2.5.2s.4-.1.6-.3l.6-.7c.3-.3.2-.8-.1-1.1l-1.1-1c-.2-.2-.4-.2-.5-.2"/><path id="D" d="M53.2 6.9c-.2 0-.4.1-.6.3l-.6.7c-.3.3-.2.8.1 1.1l1.1 1c.2.1.3.2.5.2s.4-.1.6-.3l.6-.7c.3-.3.2-.8-.1-1.1l-1.1-1c-.2-.1-.3-.2-.5-.2"/><path id="E" d="M49.8 7.7c-.2 0-.4.1-.6.3l-.6.7c-.3.3-.2.8.1 1.1l1.1 1c.2.1.3.2.5.2s.4-.1.6-.3l.6-.7c.3-.3.2-.8-.1-1.1l-1.1-1c-.2-.1-.4-.2-.5-.2"/><path id="F" d="M48.6 14.6c-.2 0-.4.1-.6.3l-.6.7c-.3.3-.2.8.1 1.1l1.1 1c.2.1.3.2.5.2s.4-.1.6-.3l.6-.7c.3-.3.2-.8-.1-1.1l-1.1-1c-.1-.2-.3-.2-.5-.2"/></defs></svg>