<svg xmlns="http://www.w3.org/2000/svg" xml:space="preserve" width="29.6" height="30.4" style="enable-background:new 0 0 29.6 30.4"><path d="M23.9 8.1c6.2 6.2 7.5 15 2.9 19.6-4.6 4.6-13.4 3.3-19.6-2.9C1 18.6-.3 9.8 4.4 5.2 9 .6 17.7 1.9 23.9 8.1" style="fill:#d2f25c"/><path d="M1.1 0C.7 0 .3.2.1.4c-.5.5 2.5 2.9 4.4 4.7.4-.4.9-.8 1.4-1.1L2.2.4C1.9.1 1.5 0 1.1 0" style="fill:#004c43"/><path d="M5.9 4c-.5.3-1 .7-1.4 1.1l.9.9 1.3 1.5c.8 1.1.5 2.3 1.6 2.5.4 0 .8-.3 1.1-.5 1-.9.6-1.5 0-2.1L5.9 4" style="fill:#00d400"/></svg>