<svg xmlns="http://www.w3.org/2000/svg" width="79.3" height="68.5" xmlns:v="https://vecta.io/nano"><path d="M69 10.6c-1-.9-2.2-1.6-3.4-1.9-.6-.1-1.2-.1-1.8 0-.7.1-1.5.7-2.2.4-1-.5-.6-2.7-.6-3.7 0-1.5-.6-2.8-1.6-3.7C56.9-.8 53.6-.1 51 1c-1.6.7-3.2 1.5-4.9 2-1.5.4-3 .3-4.6-.2-2.6-.8-5.3-2.4-8-1.4C31.1 2.3 29.7 5 28 7c-1 1.2-2.1 2.1-3.4 2.6-1.5.6-3.2.7-4.8.9-2.7.2-5.6.4-7.9 2.1S8.4 17.2 9 20.3c.3 1.7.6 1.8.2 3.5-1.2 1.5-2.5 1.1-4 1.3l-2.4.3c-.6.1-1.2.3-1.6.8-.7.8-.8 2.2-.4 3.3.3 1.1 1.1 2 1.9 2.7l1.8 2c1.1 1.1.6 1 1.8 2.5l3.1 3.7c2.2 2.4 4.5 4.6 7 6.6 5.1 4 10.9 6.8 16.9 7.8 6.2 1 12.5 0 17.9-3.3 2.8-1.7 5.3-3.9 7.6-6.3 2.2-2.3 4.3-4.7 6.3-7.3 1.9-2.5 3.6-5.2 4.9-8.2s2.4-6.4 2.4-9.9c-.1-3.6-1-7-3.4-9.2" fill="#a4ffde"/><path d="M66.7 28.9c3.7 14.6-5.2 29.4-19.8 33-14.6 3.7-29.4-5.2-33-19.8s5.2-29.4 19.8-33 29.4 5.2 33 19.8" fill="#4ed8aa"/><path d="M74.4 16.5c-.2 0-.4 0-.6.1-.6.3-1 .9-1.3 1.4-.1.2-.2.4-.3.5v.9c-.1 3.5-1.1 6.9-2.4 9.9a60.91 60.91 0 0 1-2.3 4.4c.8 12.9-7.6 24.9-20.6 28.1-2.2.6-4.5.8-6.6.8-.9 0-1.8-.1-2.7-.1.2.2.5.5.7.8.3.5.5 1.2.6 1.8.1.9-.7 1.8-1.5 2.4 6.7-1 13.6-.4 19.7-3.5 5.3-2.6 9.9-6.5 13.4-11.2 3.6-4.9 5.8-10.8 6.4-16.8l.6-5c.2-1.8.4-2.7 1-4.4.4-1.3.9-2.5.9-3.9-.1-1.2-.5-2.5-1.1-3.5-.7-1-1.6-2-2.7-2.5-.4-.1-.8-.2-1.2-.2" fill="#195e55"/><path d="M72.2 18.6c-.5 1.1-.6 2.3-1.2 3.4-.5.9-1.3 1.6-2.1 1.6-.4 0-.9-.2-1.3-.5-1.1-.9-1.8-1.3-3.4-2.5-.4-.3-1-.5-1.6-.6 1.8 2.6 3.2 5.6 4 8.9.4 1.7.7 3.3.8 4.9.9-1.4 1.7-2.9 2.3-4.4 1.3-3 2.4-6.4 2.4-9.9.1-.3.1-.6.1-.9" fill="#10a27e"/><path d="M37.3 67.7c-.3.1-.7.1-1 .2H36h-.1c.1.3.3.5.5.5 0 0 .1 0 .2-.1.2-.2.5-.4.7-.6m-1.9-.5s-.1 0 0 0c-.4.5 0 .7.5.7v-.1c-.3-.3-.4-.6-.5-.6" fill="#195e55"/><path d="M62.2 20H62c-.7.1-1.8 1-2.1 1.7-.6 1.4-.3 2.4 0 4 .2 1.2.2 2.6-.1 3.8-.3 1.1-1.1 1.5-2 1.5-.4 0-.8-.1-1.2-.3-.7-.3-1.2-.8-1.8-1.3l-.3.8c-.5 1.4-1.7 2.6-2 4.1-.2.7-.1 1.7.6 2.2.2.2.5.2.8.2.4 0 .8-.1 1.2-.3.7-.4 1.2-1 1.7-1.6l1.7-2a9.51 9.51 0 0 1 2-1.5c.5-.3 1.2-.6 1.8-.6 1.5 0 1.4 1.9 1.3 3-.1 1.5-.6 2.9-1.1 4.3-2 5.5-4.7 11.7-9.8 14.8-2.5 1.6-5.3 2.1-8.2 2.1H44c.2.5.3 1 .4 1.6.1.7.2 1.6-.2 2.3-.4.6-1 .7-1.6.7-.5 0-1-.1-1.4-.2-.7-.1-1.4-.2-2-.2-.5 0-.9.1-1.3.2-1.3.4-1.7 1.6-.8 2.6.2.2.3.4.5.5.9.1 1.8.1 2.7.1 2.2 0 4.4-.3 6.6-.8 12.9-3.2 21.4-15.2 20.6-28.1-.1-1.6-.4-3.3-.8-4.9-.8-3.3-2.2-6.3-4-8.9-.2.2-.3.2-.5.2" fill="#088961"/><path d="M18.9 18.7c-.9 0-1.8.2-2.6.7-2.6 1.3-4.1 4.1-4.9 6.8-1.6 5.3-.9 10.8 2.3 15.4-1.9-8.4.3-16.7 5.2-22.9" fill="#64ffe9"/><path d="M19.1 18.7h-.2c-4.9 6.2-7.1 14.5-5.2 22.9.1.1.2.3.3.4.1.2.5.7.7.8a22.84 22.84 0 0 0 2.2 2.2c2.5 2.1 5.5 3.6 8.4 5 3 1.4 6.2 2.6 9.3 3.5 3 .9 6.3 1.6 9.5 1.7-.1-.3-.2-.6-.3-.8-.5-1.5-1.2-2.9-1.2-4.5-.1-2.3 1-5.2 3.5-5.5h.4.2.2c.6 0 1.1-.1 1.4-.6.3-.6.2-1.5.2-2.2-.1-1.8-.3-3.5-.7-5.3-.4-1.7-1-3.2-1.4-4.9-.4-1.3-.5-2.7.2-4 .6-1 1.6-1.7 2.8-1.7h.3c1.4.1 2.6 1 3.5 1.9.6.6 1.1 1.2 1.6 1.8.7-2.3.9-5.5-.7-7.5-.7-.8-1.6-1.2-2.5-1.2-1.5 0-3.1.9-4.1 1.9-1.1 1-2 2.3-3 3.5-.7 1-1.9 2.9-3.2 2.9-.2 0-.4 0-.7-.2-1.4-.7-2.2-2.5-2.7-3.9-.6-1.5-1.1-3.1-2-4.4-.6-.8-1.5-1.6-2.5-1.6-.2 0-.4 0-.5.1-1.3.4-1.7 2-2 3.3s-.3 2.7-.6 4.1c-.1.5-.4 2-1 2.2h-.1c-.5 0-1.2-.9-1.5-1.3-1.7-2.1-2.4-4.8-4.2-6.9-1.2-1.1-2.8-1.7-4.4-1.7" fill="#2ff4c7"/><path d="M49.4 25.7c-1.2 0-2.2.6-2.8 1.7-.7 1.2-.5 2.7-.2 4 .4 1.7 1.1 3.2 1.4 4.9.4 1.7.6 3.5.7 5.3 0 .7.1 1.6-.2 2.2-.3.5-.8.6-1.4.6h-.2-.2-.4c-2.5.3-3.6 3.2-3.5 5.5.1 1.6.7 3.1 1.2 4.5l.3.8h.5c2.9 0 5.7-.6 8.2-2.1 5.1-3.2 7.7-9.3 9.8-14.8.5-1.4.9-2.8 1.1-4.3.1-1 .2-3-1.3-3-.7 0-1.3.2-1.8.6-.7.5-1.4 1-2 1.5s-1.1 1.4-1.7 2c-.5.6-1 1.2-1.7 1.6-.3.2-.8.3-1.2.3-.3 0-.6-.1-.8-.2-.7-.5-.8-1.4-.6-2.2.3-1.5 1.4-2.7 2-4.1.1-.3.2-.5.3-.8-.6-.6-1.1-1.3-1.6-1.8-.9-1-2.1-1.8-3.5-1.9-.2-.3-.3-.3-.4-.3" fill="#04db96"/><path d="M.6 41c.5 1.3 1.5 2.2 2.5 3.1 1.3 1.3 1.9 2 2.8 3.5l2.7 4.3c3.2 5.2 7.7 9.5 13.1 12.3 5.2 2.8 11.1 4.2 16.9 4.2 7.2 0 14.2-2 21.1-4 .6-.2 1.2-.7.6-1-.4-.2-.7-.2-1.4-.3-1.3-.2-3-.6-3.4-1.7-.2-.6-.3-1.2-.3-1.8.1-.6.3-1.1.5-1.7.3-1.3-.6-2.2-1.9-2-1.1.2-2.1.9-3.1 1.5-.8.6-2 1.4-3 .8-.7-.4-1-1.3-1.2-2-.2-.8-.3-1.6-.5-2.4-.2-1.5-.2-3.2-.8-4.6-.9-2.1-3.1-4.2-5.5-3.4-.7.2-1.6 1-2.3.4-.6-.4-.8-1.2-1.1-1.9-.7-1.6-1.3-3.3-1.7-5.1-.4-1.7-.5-3.4-.8-5-.2-1.3-.8-2.7-1.9-3.5-1-.8-2.4-.8-3.5-.1-1.2.7-1.9 2-2.3 3.3-.5 1.5-.6 3.1-1.7 4.3-1 1.1-2.5 1.5-3.5.3-.8-1-1.2-2.2-1.8-3.3-.7-1.3-.7-2.6-1.8-3.6-.5-.5-2-.7-2.7-.4-.6.2-1.1.8-1.5 1.3-.9 1.1-1.3 2.4-2 3.7-.8 1.6-2.3 1.5-3.6.6-1.1-.8-1.9-2.1-3-2.9-.4-.6-1-.9-1.7-.9-.6 0-1.1.4-1.5.9-.7 1-1.2 2.2-1.3 3.4-.1 1.3.1 2.6.6 3.7h0z" fill="#007662"/></svg>