<svg xmlns="http://www.w3.org/2000/svg" xml:space="preserve" width="57.3" height="46.8" style="enable-background:new 0 0 57.3 46.8"><path d="M57.3 21.4c-.4-9.4-6.4-14-11.2-15.9-4-1.6-8.8-1-12.7-.4-2.1.3-3.9.6-5.2.6-1.7.1-3.5-.2-5.6-.6-3.5-.5-7.4-1.1-11.4.4C6 7.4.4 10.6 0 21.4-.5 38.1 11.8 44 23.2 46.3c2 .4 3.8.5 5.2.5h.4C44 46.6 58 39.9 57.3 21.4" style="fill:#e2452b"/><path d="M17.4.9c-.2 0-.4 0-.6.1-1.3.6-.8 2.1.1 3.6 2 0 3.9.3 5.7.6.2 0 .3 0 .5.1C21.7 3.5 19.2.9 17.4.9m23-.4c-.7 0-1.4.2-2 .4-2 .7-3.8 2.1-5.3 3.7-.2.3-.5.5-.7.7.3 0 .6-.1.9-.1 2-.3 4.3-.6 6.6-.6h.3c.7-.5 1.2-1.2 1.6-1.9.4-.8.2-1.7-.7-2-.1-.2-.4-.2-.7-.2" style="fill:#1ca57b"/><path d="M40 4.5c-2.3 0-4.6.3-6.6.6-.3 0-.6.1-.9.1-1.2 1.3-1.6 2-3.1 4.2.4 1.2.9 2.2 1.8 2.8 0 0-1.6 1.2-3 1.2-.7 0-1.4-.3-1.8-1.4 0 0-.4-.9-.5-3.5-.8-.8-1.5-1.7-2-2.4-.2-.2-.5-.6-.8-1-.2 0-.3 0-.5-.1-1.8-.3-3.7-.6-5.7-.6.9 1.4 2.2 2.7 2.7 3.2 1.9 1.7 3.3 2.5 5.8 4.8 1 1.1-3.2 1.9-4.9 2.3-1.7.4-3.7.4-5.2 1.6-.6.5-1.1 1.3-.7 2.1.4.8 1.3 1 2.1 1 2 0 4-.5 5.8-1.3 1.8-.7 3.4-1.4 5.2-1.8.4-.1.8-.1 1.1-.1 1.8 0 3.3 1 4.3 2.6.6.8 1.1 1.7 1.6 2.6.5 1 .9 2 1.2 3 .3.8.8 1.5 1.7 1.6.8 0 1.2-.7 1.5-1.4.6-2.1.2-4-1-5.7-.6-.8-1.4-1.7-2.2-2.3-.4-.3-.6-.5-1.1-.8-.2-.1-.5-.4-.7-.6-.6-.8.2-1.1 1.3-1.1 1 0 2.2.2 2.9.6 1.2.6 2.9 1.9 3.9 2.3.4.2.8.3 1.2.3.3 0 .6-.1 1-.2.7-.3.6-1.2.4-1.8-.3-.8-.9-1.4-1.6-1.9-1.5-1.2-3.4-1.8-5.3-2h-.8c-.8 0-1.6.1-2.3.3-.8.2-1.6.5-2.4.5-.2 0-.4 0-.6-.1-1.4-.6 3.2-3.6 5-5.1 1.1-.9 2.4-1.6 3.5-2.5H40" style="fill:#317c29"/><path d="M28.1 0c-1.1 0-1.5 1-1.6 1-.2 1.8-.4 3.3-.5 4.7.6.1 1.2.1 1.7.1h1.2c-.1-2.8.2-5.5.2-5.5-.4-.2-.7-.3-1-.3" style="fill:#007662"/><path d="M26 5.7c-.1 1.2-.1 2.2 0 3 .8.9 1.7 1.6 2.4 1.6.3 0 .6-.2.9-.5 0-.1.1-.2.2-.2-.3-1.2-.5-2.5-.6-3.8h-1.2c-.5-.1-1.1-.1-1.7-.1" style="fill:#002011"/><path d="M26 8.7c.1 2.6.5 3.5.5 3.5.4 1 1 1.4 1.8 1.4 1.4 0 3-1.2 3-1.2-.9-.5-1.5-1.6-1.8-2.8 0 .1-.1.1-.2.2-.2.4-.5.5-.9.5-.7-.1-1.6-.8-2.4-1.6" style="fill:#003910"/></svg>