<svg xmlns="http://www.w3.org/2000/svg" xml:space="preserve" width="67" height="80.6" style="enable-background:new 0 0 67 80.6"><path d="M35.2 19.8c-4.3 4.6-6.2 11-10.6 15.5C18.7 41.1 9.3 42.5 4 48.9.3 53.4-.7 59.7.3 65.4c.6 3.4 1.9 6.7 4.3 9.2 4.2 4.4 11.2 6.1 17.2 6 5.7-.1 11.2-1.8 16.2-4.5 2.8-1.5 5.2-3.6 7.4-5.9 9.6-9.7 15.7-22.7 17-36.2.5-5.5.1-11.6-3.5-15.9-6.4-7.5-17.7-4.8-23.7 1.7" style="fill:#6c73ba"/><path d="M51.7 0c-1.1 0-1.2 2-1.4 3.4-.2 1.3-.4 2.5-.6 3.8-.1.7-.2 1.4-.4 2.1-.2.7-.5 1.1-1.2 1.3-2.4.8-5 .8-7.4 1-2 .2-4.6 0-6.3 1.7-1.3 1.3-1.6 3.5-.2 4.8.6.5 1.2.7 1.9.8 3.4-3.2 8.1-5.2 12.6-5.2 3.7 0 7.3 1.4 10.1 4.6 1.7 1.9 2.6 4.3 3.2 6.8.4.2.8.3 1.2.3 1.2 0 2.3-.8 3.1-1.9 1.4-2 .1-4.1-1.4-5.3-1.5-1.4-3.4-2.1-5.2-3-1.7-.8-3.6-2-4.4-4-1-2.5.3-4.9.6-7.5C56.1 2 52.2.4 52.2.4c-.1-.3-.3-.4-.5-.4" style="fill:#17a27b"/><path d="M48.9 13.6c-4.5 0-9.2 2-12.6 5.2h.3c1 0 2-.3 2.9-.7.8-.3 1.5-.5 2.3-.5.2 0 .5 0 .7.1 1.1.2 1.7 1 1.6 2.3-.1 1-.3 2-.3 3.1 0 .9.1 1.8.4 2.7.5 1.3 1.6 2 2.7 2 .4 0 .8-.1 1.2-.3.7-.3 1.4-1 1.7-1.8.4-.9.1-2.6.8-3.2.2-.2.4-.2.6-.2.7 0 1.3.8 1.5 1.5.3 1 .1 2.2.4 3.3.3 1.2 1.3 2 2.3 2 .6 0 1.1-.2 1.6-.7.7-.7.9-1.8.7-2.8-.2-.9-1.2-2.8.2-3.1h.3c.7 0 1.2.5 1.7.9.6.5 1.2 1.1 1.9 1.5.1 0 .2.1.2.1-.5-2.5-1.5-4.8-3.2-6.8-2.6-3.3-6.2-4.7-9.9-4.6" style="fill:#0a495a"/></svg>