<svg xmlns="http://www.w3.org/2000/svg" xml:space="preserve" id="Layer_1" width="80.5" height="95.5" x="0" y="0" style="enable-background:new 0 0 80.5 95.5" version="1.1"><style>.st12{fill:#4d4d4a}</style><path d="M80.5 47.5c0 24.6-18 44.6-40.3 44.6S0 72.2 0 47.5 18 3 40.2 3s40.3 19.9 40.3 44.5" style="fill:#00754e"/><path d="M5.6 70.2c6.2 14.9 19.8 25.3 35.6 25.3v-3.4h-.9c-14.8 0-27.7-8.8-34.7-21.9" style="fill:#fffaed"/><path d="M40.7 8.7C19.3 9 2 28.3 2 52.1c0 6.5 1.3 12.6 3.6 18.1 7 13.1 19.9 21.9 34.7 21.9h.9v-5.3h-.5V8.7" style="fill:#bad5bd"/><path d="M40.7 0c2.9.1 5.6 1.5 8.1 4 3.5.8 6.9 2.2 10 4-5.1-5-11.4-8-18.1-8" style="fill:#f1ffcd"/><path d="M48.8 4c6.7 6.8 11.4 21.9 11.4 39.5 0 22.8-7.9 41.5-18 43.2C58.8 85.6 72 66.6 72 43.4 72 28.8 66.8 15.8 58.8 8c-3.1-1.8-6.5-3.2-10-4" style="fill:#39a249"/><path d="M40.7.1V3 .1" style="fill:#f6ffdf"/><path d="M42.2 86.7c-.3 0-.7 0-1 .1v.1c.3-.1.7-.1 1-.2M40.7 3v5.7V3" style="fill:#25924b"/><path d="M40.7 8.7v78.1h.5v-.1h-.5v-78" style="fill:#c4deb5"/><path d="M40.7.1V3c2.8 0 5.5.4 8.1 1C46.3 1.5 43.6.1 40.7.1" style="fill:#eeffb6"/><path d="M40.7 3v5.7h.5v78c.3 0 .7 0 1-.1 10-1.7 18-20.4 18-43.2 0-17.5-4.7-32.6-11.4-39.5-2.7-.5-5.4-.9-8.1-.9" style="fill:#56b646"/><path d="M41.2 8.7h-.5v78h.5v-78" style="fill:#d1e9a8"/><path d="M45.6 95.1C24 95.1 6.5 75.7 6.5 51.7S24 8.4 45.6 8.4" style="fill:#ff5582"/><path d="M33.8 59.3c-.6.4-1.3.6-1.9.4-.3-.2-.6-.5-.8-.8-.1-.2-.2-.4-.2-.7 0-.4.4-.7.7-.9.5-.3 1.1-.4 1.7-.4.4 0 2.1.1 2.1.7 0 .3-.5.8-.7 1-.2.2-.5.5-.9.7zM39.1 68c-.2.6-.6 1.3-1.2 1.4-.4.1-.8 0-1.1-.1-.2-.1-.5-.2-.6-.4-.2-.3-.2-.8 0-1.2.2-.6.6-1 1-1.4.3-.2 1.7-1.3 2.1-.8.2.3.1.9.1 1.2-.1.5-.2.9-.3 1.3zM32 65.7c-.5.4-1.2.7-1.9.4-.3-.1-.6-.4-.8-.8-.1-.2-.2-.4-.2-.7 0-.4.3-.7.7-.9.5-.3 1.1-.5 1.7-.5.4 0 2.1 0 2.1.6 0 .3-.5.8-.7 1l-.9.9zM27.3 55.3c-.7.1-1.4 0-1.9-.5-.2-.3-.3-.7-.4-1 0-.2 0-.5.1-.7.2-.3.6-.5 1-.5.6-.1 1.2.1 1.7.3.4.2 1.9 1 1.6 1.5-.2.3-.8.5-1 .6-.3.1-.7.2-1.1.3zM32.3 40.5c-.6-.3-1.1-.9-1.1-1.6 0-.4.2-.7.4-1 .2-.2.3-.4.5-.5.4-.1.8 0 1.1.3.5.3.9.8 1.1 1.3.2.4.8 2 .2 2.2-.3.1-.9-.1-1.2-.2-.2-.2-.6-.3-1-.5zM33.7 34.3c-.6-.3-1.1-.9-1.1-1.6 0-.4.2-.7.4-1 .2-.2.3-.4.5-.5.4-.1.8 0 1.1.3.5.3.9.8 1.1 1.3.2.4.8 2 .2 2.2-.3.1-.9-.1-1.2-.2l-1-.5zM29.5 49.5c-.7 0-1.4-.1-1.8-.7-.2-.3-.3-.7-.2-1.1 0-.2.1-.5.2-.7.2-.3.7-.4 1.1-.4.6 0 1.2.2 1.7.5.3.2 1.8 1.2 1.4 1.7-.2.2-.8.4-1.1.5-.5.1-.9.2-1.3.2zM27.7 43.5c-.7-.1-1.3-.4-1.6-1.1-.1-.3-.1-.7 0-1.1.1-.2.2-.5.3-.6.3-.3.8-.3 1.2-.2.6.2 1.1.5 1.5.9.3.3 1.5 1.6 1 2-.2.2-.9.2-1.2.2-.3 0-.8 0-1.2-.1zM39.5 33.6c-.3-.6-.5-1.3-.2-1.9.2-.3.5-.5.8-.7.2-.1.5-.2.7-.1.4.1.7.4.8.8.2.5.3 1.1.3 1.7 0 .4-.3 2.1-.9 2-.3-.1-.7-.6-.9-.8-.2-.3-.4-.6-.6-1z" class="st12"/></svg>