<svg xmlns="http://www.w3.org/2000/svg" xml:space="preserve" width="75.9" height="67.9" style="enable-background:new 0 0 75.9 67.9"><path d="M23.9 8.1c-8.5 7.6-6.6 23.6 4.2 35.7s26.5 15.7 35 8c4.5-4.1 6.1-10.5 5-17.4C65.3 1.7 80.2 7.7 74.7 1.5 71.9-1.7 71.8.7 68.1 3c-3.7 2.3-10.9 4.7-27.9 1.5-.2 0-.5-.1-.7-.1-5.9-1-11.5.1-15.6 3.7" style="fill:#d8d5b4"/><path d="M32.9 39.2c-1.9 1.9-4 3.5-6.4 4.8-2.5 1.4-5.3 2.4-8.2 1.5-1.5-.4-2.9-1.2-4.3-2l-4.2-2.1c-1.4-.6-2.8-1.3-4.2-1.7-1.1-.3-2.2-.3-3.2.3C.6 41-.3 43.2 0 45.1c.4 2.3 2.3 4.2 4.4 5 2.6 1.1 5.6.9 8.4.5 2.6-.4 5.1-1 7.5-1.9 2.7-1 5.3-2.3 7.7-3.8 1.2-.8 2.4-1.7 3.5-2.6.9-.8 1.9-1.7 2.1-2.8.1-.9-.8-.3-.7-.3" style="fill:#17a27b"/><path d="M29.7 45.4c-.6 2.2-.9 4.4-1 6.7 0 2.2.2 4.4.7 6.5.5 2.3 1.3 4.8 3.1 6.8 1.3 1.4 3.4 2.5 5.5 2.5h.5c1.9-.2 3.5-1.4 3.9-3.1.2-.9-.1-1.9-.7-2.7-.9-1.1-2-2.1-3-3.1s-2.1-2-3.2-2.9c-1.1-1-2.2-1.9-3.1-3.1-1.5-1.9-1.6-4.1-1.3-6.3-.5-.4-1-.8-1.4-1.3" style="fill:#007662"/><path d="M32.8 41.3c-.4.4-.8.8-1.3 1.2-.4.4-.9.7-1.3 1.1-.2.5-.3.9-.5 1.4 0 .1-.1.3-.1.4.5.5 1 .9 1.5 1.4 0-.2.1-.5.1-.7.4-1.7.9-3.3 1.6-4.8m-.1-2c-.4.2-.7.5-.9.9.3-.3.6-.5.9-.9" style="fill:#006345"/><path d="M33.2 39.2c-.1 0-.2 0-.3.1-.1 0-.2.1-.2.1l-.9.9c-.3.4-.5.9-.7 1.3-.3.7-.6 1.3-.8 2 .5-.3.9-.7 1.3-1.1.4-.4.9-.8 1.3-1.2.2-.5.5-1 .8-1.5-.1 0 .1-.6-.5-.6" style="fill:#004b2f"/></svg>