<svg xmlns="http://www.w3.org/2000/svg" xml:space="preserve" width="44.9" height="55.4" style="enable-background:new 0 0 44.9 55.4"><path d="M24 .1S11-3 1.8 24.9c0 0-9.5 26 15.3 30.3 0 0 24.3 3.5 22-25.1 0 .1-2.6-28.9-15.1-30" style="fill:#007662"/><path d="M31.8 5.5c5.9 8.7 7.3 24.7 7.3 24.7 1.1 13.8-4 20.1-9.6 23 4.5-.7 20.3-4.7 13.9-26.4 0-.1-4.4-14.8-11.6-21.3" style="fill:#fff07c"/><path d="M25.1 2.5h-.9c-.6.1-12.3.4-15.2 26.5 0 0-3.5 24.3 18.4 24.3h1s.4 0 1.1-.1c5.6-2.8 10.7-9.2 9.6-23 0 0-1.4-16-7.3-24.7-2-1.8-4.3-3-6.7-3" style="fill:#dbdc52"/><circle cx="26.1" cy="32.3" r="8.6" style="fill:#173a91"/></svg>