<svg xmlns="http://www.w3.org/2000/svg" width="50.6" height="62.7" xmlns:v="https://vecta.io/nano"><path d="M50.5 24.7c-.3-3.7-1.8-8.8-4.7-11.4S38.2 9.3 35 12c-.7.6-2 1.7-4.1 1.7-2.3-.1-3.1-2-6-1.8-3.1.2-3.1.8-5.7 2.4-1.7 1-4.3-.3-5.2-.7-3.9-1.8-8.1-.6-10.9 2.4C.4 19-.2 23.3 0 27.1c.4 5.7 1.5 11.2 4 16.5 1.9 4.1 4 8.2 7.5 11.4 2.1 2 4.8 4.1 8 4.1 1.9 0 3.3-.6 4.6-1.2 1.5-.7 2.8-1.4 4.2-1.1 2.2.4 4.6 1.6 7.1 1.3 4.4-.6 6.8-4.2 8.5-6.6 2.6-3.7 3.9-6.7 5.1-11 1.4-5.4 1.9-10.1 1.5-15.8" fill="#18a058"/><path d="M6.1 47.8c1.1 3.4 2.3 6.8 4.4 9.7 1.6 2.2 3.6 4.6 6.2 4.9h.7c1.3 0 2.4-.4 3.3-.9 1-.4 1.8-.9 2.6-.9.3 0 .6.1.8.2 1.7.6 3.5 1.9 5.5 1.9h.3c3.1-.2 5.3-2.7 6.9-4.8-.5.2-1 .3-1.5.3-.3 0-.6.1-.9.1-2.1 0-4.2-1-6.2-1.3-.3-.1-.5-.1-.8-.1-1.1 0-2.1.6-3.4 1.2-1.2.6-2.7 1.2-4.5 1.2h-.1c-3.2 0-5.9-2.2-8-4.1-2.2-2.3-3.9-4.8-5.3-7.4" fill="#e4ff9b"/><path d="M29.8 54.6s-.1 0 0 0c-5.3-.1-4.5-8.1-4.3-17.9.2-9.7-.3-17 4.9-17.4.8-.1 1.6-.1 2.3-.1 8.9 0 10.6 4.3 9.2 15.1-1.2 9.6-6.9 20.3-12.1 20.3m-12.5.4H17c-5.4-.3-10.5-12-11.1-22.1-.6-10.5 1.1-15 8.6-15 1.3 0 2.7.1 4.4.4 5.4.8 4.3 8.4 3.8 18.5-.5 10-.3 18.3-5.4 18.2m19.5-40.2c-1 0-2.1.3-3 1.2-.6.5-1.6 1.4-3.1 1.4h-.5c-1.9-.3-2.4-2.3-4.8-2.4h-.5c-2.1 0-2.3.7-4.4 2-.3.2-.7.3-1.1.3-1.4 0-3-.9-3.6-1.2-1.2-.6-2.5-.8-3.7-.8-2.3 0-4.6.9-6.2 2.7-2.6 2.7-2.9 6.2-3 10-.2 5.8.9 11.7 2.5 17.3a24.13 24.13 0 0 0 .8 2.5c1.4 2.6 3.1 5.1 5.4 7.2 2.1 2 4.8 4.1 8 4.1h.1c1.8 0 3.3-.6 4.5-1.2s2.3-1.2 3.4-1.2c.2 0 .5 0 .8.1 1.9.3 4.1 1.3 6.2 1.3.3 0 .6 0 .9-.1l1.5-.3.8-1.1c2.5-3.5 3.8-6.5 5.2-10.7 1.7-5.5 2.6-10.2 2.7-16 .1-3.8-.7-9.1-2.8-11.9-1.7-1.7-3.9-3.2-6.1-3.2" fill="#94de61"/><path d="M18.2 31.7c-.3 0-.5-.1-.8-.3-.5-.4-.5-1.1-.1-1.6.4-.4 2.4-2 3.1-2 .1 0 .2 0 .2.1.5.4-1.1 2.9-1.5 3.3-.3.4-.6.5-.9.5m-2.8-3.2c-.4 0-.9-.2-1.1-.6-.3-.5 0-1.2.5-1.5.4-.2 2.3-.7 3.2-.7.3 0 .5 0 .6.2.3.5-2.2 2.2-2.8 2.5 0 .1-.2.1-.4.1m.2-4.1c-.6 0-1.2-.5-1.2-1.1a1.11 1.11 0 0 1 1.1-1.1c.7 0 3.7.4 3.7 1 .2.6-2.9 1.1-3.6 1.2h0m-1-6.5c-7.5 0-9.2 4.5-8.6 15C6.5 43 11.6 54.7 17 55h.3c5.1 0 4.9-8.3 5.4-18.2.5-10.1 1.6-17.7-3.8-18.5a23.68 23.68 0 0 0-4.3-.4m15.7 15.7c-.3 0-.7-.1-.9-.4-.4-.5-1.9-3-1.4-3.4h.2c.7 0 2.7 1.7 3.1 2.1.4.5.3 1.2-.2 1.6-.3 0-.5.1-.8.1m2.9-3.1c-.2 0-.4 0-.6-.1-.6-.3-3-2.1-2.7-2.6.1-.1.2-.2.5-.2.9 0 2.9.6 3.3.9.6.3.8 1 .5 1.5-.1.3-.5.5-1 .5m0-4.2c-.8 0-3.8-.8-3.7-1.4s2.7-.8 3.6-.8h.2c.7 0 1.1.6 1.1 1.2s-.5 1-1.2 1m-.5-7.1l-2.3.1c-5.2.3-4.7 7.6-4.9 17.4s-1 17.8 4.2 17.9h.1c5.2 0 10.9-10.7 12.1-20.2 1.5-10.9-.3-15.2-9.2-15.2" fill="#6fc461"/><path d="M28.2 29.7H28c-.5.4 1 2.9 1.4 3.4.2.3.6.4.9.4s.5-.1.7-.2c.5-.4.6-1.1.2-1.6-.3-.4-2.3-2-3-2m2.3-2.2c-.3 0-.4 0-.5.2-.3.5 2.1 2.3 2.7 2.6.2.1.4.1.6.1a1.1 1.1 0 0 0 1-.6c.3-.5.1-1.2-.5-1.5-.4-.1-2.4-.8-3.3-.8m2.6-3.4c-.9 0-3.6.3-3.6.8-.1.6 3 1.3 3.6 1.4h.1c.6 0 1.1-.4 1.2-1s-.4-1.1-1.1-1.2h-.2M20.4 28c-.8 0-2.8 1.5-3.1 2-.4.5-.4 1.2.1 1.6.2.2.5.3.8.3s.7-.1.9-.4c.4-.5 2-3 1.5-3.3 0-.2-.1-.2-.2-.2m-2.3-2.3c-1 0-2.8.5-3.2.7-.6.3-.8.9-.5 1.5.2.4.6.6 1.1.6.2 0 .3 0 .5-.1.6-.3 3.1-2 2.8-2.5-.1-.1-.3-.2-.7-.2m-2.5-3.5c-.7 0-1.2.5-1.2 1.1s.5 1.1 1.2 1.1 3.7-.6 3.7-1.2-2.9-1-3.7-1" fill="#d1ecb5"/><path d="M19.1 0C17.9 0 17 .1 17 1.2s1 2.1 2.1 2.1c1.8 0 2.7 0 3.5 1.3 1.3 2 .1 6.4-.2 7.6v.1c.6-.3 1.4-.4 2.6-.5h.3c1.4 0 2.3.5 3.1 1 .2-1.4.4-7.1-2.4-10.6C24.8.9 23.2 0 19.1 0" fill="#407972"/><path d="M25.2 11.9h-.3c-1.3.1-2 .2-2.6.5-.2 1 1.1 1.2 2.3 1.5.1 0 .2 0 .3.1.3 0 .7.1 1.1.1 1 0 2.1-.2 2.3-.9V13c-.8-.7-1.7-1.1-3.1-1.1" fill="#066f39"/></svg>