<svg xmlns="http://www.w3.org/2000/svg" width="41.5" height="43.6" xmlns:v="https://vecta.io/nano"><path d="M10.5 6.2l-1.8 1C1.1 11.8-1.6 20 .9 26.7c-.4.7-.5 1.6-.1 2.4a2.33 2.33 0 0 0 2.1 1.3H3c2.8 3.3 7.4 5.4 12.3 5.4 2.3 0 4.7-.4 6.9-1.4.1-.6.1-1.2.2-1.8a16.49 16.49 0 0 1-6.9 1.5c-5.2 0-10.2-2.2-12.6-6.3l1.5-.8c-.4-.7-.6-1.1-.7-1.2-.1-.2 8.6-3.8 8.9-3.8h0l-.3.9 7.5-3.8c-.5-.2-.9-.4-.9-.4l8.3-4.6c.2.4.3.7.4 1.1l2.7-1.4c.5.8.8 1.6 1.1 2.6.6-.4 1.1-.8 1.8-1.1 0-.2-.1-.3-.1-.5.4-.5.6-1.2.4-1.8l-1.3.9c-.2.1-.4.2-.6.2-.3 0-.6-.2-.8-.5-.4-.6-.3-1.3.2-1.6l1.3-.9c-.3-.2-.7-.3-1.1-.3-.4-.6-.9-1.1-1.4-1.6-2 1-4.7 1.9-7.8 1.9-3.6 0-7.5-1.2-11.5-4.9" fill="#6d6"/><path d="M14.6 32.4c-1 0-1.5-.2-1.6-.2-.2 0 2.2-9.3 2.4-9.5l5.4 7.9c-2.7 1.5-4.9 1.8-6.2 1.8M19.8 19l-7.5 3.8L9.6 31c-2.9-1.4-4.4-3.1-5.2-4.2l-1.5.8c2.3 4.1 7.4 6.3 12.6 6.3 2.4 0 4.8-.5 6.9-1.5.1-.8.3-1.7.5-2.5-.3.2-.5.3-.6.3h0c-.3 0-3.7-8.8-3.7-9l6.5 2.2c.3-.7.7-1.3 1.1-1.9-1.8-.6-4.8-1.8-6.4-2.5m10.5-5.3l-2.7 1.4c.5 1.5.7 2.8.7 3.9.9-1 1.9-1.9 3.1-2.7-.3-1-.6-1.8-1.1-2.6" fill="#b5f566"/><path d="M19.7 0C13.2 0 7.5 2.8 7.5 2.8c1 1.3 2 2.4 3 3.4 2.4-1.1 4.9-1.6 7.3-1.6 4.6 0 9 1.8 11.9 4.6 1.1-.5 2-1.1 2.6-1.5L30 7.1c-.5-.1-.8-.7-.7-1.2s.5-.7 1-.7h.3l2.1.5C28.9 1.3 24.1 0 19.7 0" fill="#198371"/><path d="M17.9 4.6c-2.4 0-5 .5-7.3 1.6 3.9 3.7 7.9 4.9 11.4 4.9 3.1 0 5.8-.9 7.8-1.9-2.9-2.8-7.3-4.6-11.9-4.6" fill="#21e433"/><path d="M35.2 14.1c-.8.3-1.5.7-2.1 1 1.5 6.4-1.1 14.1-9.7 18.6l-1.2.6c-.5 5.2.2 9.3.2 9.3 20.6-7.9 16.2-25 14.8-29.2l-.3 3.2c-.1.5-.5.9-1 .9h-.1c-.6-.1-.9-.5-.9-1.1l.3-3.3" fill="#198371"/><path d="M33.1 15.1c-.6.3-1.2.7-1.8 1.1 1.2 5.3-2.1 12.6-8.2 15.9-.2.1-.5.2-.7.3-.1.6-.2 1.2-.2 1.8l1.2-.6c8.5-4.3 11.2-12 9.7-18.5" fill="#0a991a"/><path d="M31.3 16.2c-1.2.8-2.2 1.8-3.1 2.7 0 1.8-.4 2.9-.4 3.1-.2 0-.7-.2-1.6-.5-.4.6-.8 1.2-1.1 1.9l2.4.8c-1.6 3.6-3.7 5.1-4.7 5.7l-.5 2.5c.2-.1.5-.2.7-.3 6.3-3.2 9.6-10.5 8.3-15.9" fill="#12d222"/><path d="M40.6 5.9c-.2 0-.4 0-.6.2l-2 1.3a.96.96 0 0 1 .2.9c-.1.5-.5.7-1 .7h-.3l-1-.3-3.7 2.5a1.96 1.96 0 0 1 .9.9c.1.2.2.5.2.7l2.1-1.4.1-1.2c.1-.5.5-.9 1-.9h.1c.4 0 .8.3.9.7L41 7.7c.5-.3.6-.9.3-1.4-.1-.2-.4-.4-.7-.4" fill="#007662"/><path d="M32.3 11.2L31 12c-.5.3-.6.9-.3 1.4.2.3.5.5.8.5.2 0 .4 0 .6-.2l1.3-.9c0-.2-.1-.5-.2-.7a1.96 1.96 0 0 0-.9-.9" fill="#006627"/><path d="M32.6 5.7l.9 1.2-1.1.8 3.7 1 2-1.3a.55.55 0 0 0-.5-.3l-5-1.4" fill="#007662"/><path d="M30.3 5.1c-.4 0-.8.3-1 .7-.1.5.2 1.1.7 1.2l2.4.6 1.1-.8-.9-1.2-2.1-.5h-.2" fill="#003d2c"/><path d="M38.1 7.4l-2 1.3.9.3h.3c.4 0 .8-.3 1-.7 0-.4 0-.7-.2-.9" fill="#003726"/><path d="M37.6 10.1l-2.1 1.4-.3 2.7 1.6-.6.3.9.4-4c.1-.2.1-.3.1-.4" fill="#007662"/><path d="M36.9 13.5l-1.6.6-.3 3.3c-.1.5.3 1 .9 1.1h.1c.5 0 .9-.4 1-.9l.3-3.2c-.3-.6-.5-.9-.4-.9" fill="#003d2c"/><path d="M36.6 9.3c-.5 0-.9.4-1 .9l-.1 1.2 2.1-1.4c-.1-.4-.4-.7-.9-.7h-.1" fill="#003726"/><path d="M12.7 22c-.2 0-9 3.6-8.9 3.8 0 .1.2.5.7 1.2l7.9-4.1.3-.9" fill="#abeb9c"/><path d="M12.4 22.9L4.5 27c.8 1.1 2.3 2.8 5.2 4.2l2.7-8.3m2.9-.1c-.1.2-2.6 9.5-2.4 9.5.1 0 .7.2 1.6.2 1.4 0 3.5-.3 6.1-1.8l-5.3-7.9m3.3-1.5c0 .2 3.4 9 3.7 9h0s.3-.1.6-.3c.5-2.2 1.2-4.4 2.3-6.5l-6.6-2.2" fill="#d6f89c"/><path d="M25.2 23.5c-1.1 2.1-1.8 4.3-2.3 6.5 1-.6 3.1-2.2 4.7-5.7l-2.4-.8" fill="#7de576"/><path d="M27.2 14l-8.3 4.6.9.4 7.7-4c0-.3-.2-.6-.3-1" fill="#abeb9c"/><path d="M27.6 15.1l-7.7 4 6.4 2.5c.6-.9 1.2-1.8 2-2.6-.1-1.1-.2-2.4-.7-3.9" fill="#d6f89c"/><path d="M28.3 19c-.7.8-1.4 1.7-2 2.6.8.3 1.4.5 1.6.5 0-.2.4-1.3.4-3.1" fill="#7de576"/></svg>