<svg xmlns="http://www.w3.org/2000/svg" width="36" height="35.9" xmlns:v="https://vecta.io/nano"><path d="M23.8 25.3c-1.5 7-7.4 11.7-14.4 10.3-7-1.5-10.6-8.2-9.1-15.2S5.6.7 16.2 2.9c9.6 2 9.1 15.4 7.6 22.4" fill="#fc8e2c"/><path d="M8.3 25c-.2 0-.5-.1-.7-.2-.7-.4-.9-1.3-.5-1.9s2.5-3.2 3.3-3.2h.2c.7.4-.6 3.9-1 4.5-.3.5-.8.8-1.3.8m4-19c-2.7 0-7.2 6.7-8.6 13.3-1.4 6.9 1.1 11.1 3.7 11.6h.3c2.3 0 3.1-5.3 4.5-11.9 1.4-6.9 2.9-12.5.3-13 0 .1-.1.1-.2 0m2.9 22.3c-.7 0-1.3-.5-1.4-1.2-.1-.8.1-4.5.9-4.6.8 0 1.8 3.5 1.9 4.3a1.46 1.46 0 0 1-1.2 1.6c-.1-.1-.1-.1-.2-.1m1-18.2c-1.2 1.9-1.9 6-2.8 10.7-1.4 6.8-3 12.4-.4 12.9h.4c2.5 0 6.3-3.9 8-9.6-2.9-3.7-5.2-8.4-5.2-14" fill="#fdc991"/><path d="M18.7 3.8c7.1 3.6 6.5 15.2 5.2 21.5l-.3 1.2C28.8 32 34.9 35 34.9 35 40.6 12.5 23.8 5.4 18.7 3.8" fill="#30dea8"/><path d="M18.5 3.7c0 .2 0 .5.1.8h-.8c-.2 0-.5 0-.8-.1-.5 2-.7 3.8-.7 5.6.5-.8 1-1.2 1.7-1.2h.3c2.6.5 5 6.9 3.6 13.7-.1.5-.2 1-.4 1.4.7.9 1.4 1.7 2.1 2.4l.3-1.2c1.3-6.4 1.9-18-5.2-21.5-.1.2-.2.1-.2.1" fill="#2fcd48"/><path d="M17.9 8.9c-.7 0-1.2.4-1.7 1.2 0 5.5 2.3 10.2 5.2 14 .1-.5.2-.9.4-1.4 1.4-6.8-1-13.2-3.6-13.7-.1-.1-.2-.1-.3-.1" fill="#30e7a0"/><path d="M14.7 22.5c-.8.1-1 3.8-.9 4.6.1.7.7 1.2 1.4 1.2h.2c.8-.1 1.3-.8 1.2-1.6-.1-.7-1.1-4.2-1.9-4.2m-4.3-2.8c-.8 0-2.9 2.5-3.3 3.2s-.2 1.5.5 1.9c.2.1.5.2.7.2.5 0 1-.2 1.2-.7.4-.7 1.7-4.2 1-4.5 0-.1 0-.1-.1-.1" fill="#fffada"/><path d="M17.7 0h-.4-.2 0c-1.2 1.2-1.4 2.7-1.5 2.8.2 0 .4.1.6.1.8.2 1.6.4 2.2.8-.1-1.8.8-2.5.8-2.5.1-1-.8-1.2-1.5-1.2" fill="#3767d3"/><path d="M15.7 2.8h0c-.2 1.1.5 1.5 1.3 1.6l.3-1.1 1.2.3c-.7-.3-1.4-.6-2.2-.8-.3.1-.4.1-.6 0" fill="#363924"/><path d="M17.2 3.4l-.3 1.1c.3 0 .6.1.8.1h.8c0-.3-.1-.5-.1-.8-.7-.3-1.2-.4-1.2-.4" fill="#0a533c"/></svg>