<svg xmlns="http://www.w3.org/2000/svg" width="72.3" height="98" xmlns:v="https://vecta.io/nano"><path d="M70.8 64.6c4.8 9.9-2.4 30.6-7.8 33.1-4.3 1.9-26-4.6-30.8-14.4-4.8-9.9 0-22.1 10.7-27.2s23.1-1.4 27.9 8.5" fill="#a4c3f1"/><path d="M40.7 0c-2.1 0-3.3 1.9-3.9 3.8-.4 1.4-.6 3-.5 4.5a8.33 8.33 0 0 0 .3 2.2c.2.7.3 1.5.4 2.2 0 .7 0 1.5-.6 2-.3.2-1 .4-1.5.7-1.1.7-1.2.9-1.5 1.2-.8 1-.5 2.7-.3 3.9.3 1.4.8 2.7 1.5 3.9.6 1.2 1.5 2.4 2.4 3.4l.3.3c.2-.1.5-.1.8-.2h.3c1.2 0 2.2.8 2.6 2 .5 1.3.4 2.7.3 4.1l-.6 4.4c-.2 1.4-.4 2.9-.2 4.3v.2c.4.3.8.7 1.2 1.1a9.5 9.5 0 0 1 2.1 3.8l1.5 4c.4 1 .9 1.9 1.4 2.8l2.6-.6c-.5-.8-1-1.6-1.2-2.5-.4-1.5-.7-3-.8-4.5-.1-1.6-.2-2.4.5-3.8 1.2-2.5 3.3-4.7 3.8-7.6.2-1.1.1-2.2-.3-3.3S50 30.5 49 30s-2.4-.8-2.9-2c-.3-.7-.1-1.4.1-2.1.3-.7.6-1.4 1-2l2.5-3.8c.7-1.1 1.2-2.5 1.2-3.8-.1-1.1-.5-2.2-1.7-2.5-.2 0-.4-.1-.6-.1-.3 0-.6 0-.9.1-.3 0-.6.1-.9.1-.5 0-1-.1-1.4-.5-1-1-1.1-2.5-1.1-3.9.1-1.4.4-2 .5-3.5.2-1.3.2-2.4-.4-3.7-.5-1-1.4-1.9-2.5-2.2-.4 0-.8-.1-1.2-.1" fill="#007662"/><path d="M49.1 54c-.9.1-1.8.3-2.6.6.2.3.3.6.5.9 1.5 2.4 2.3 4.6 3.1 4.8.4 0 1.8-1.9 1.8-1.9 0-.7-.5-.6-1.9-3l-.9-1.4" fill="#007edb"/><path d="M6.5 8.5c-1.3 0-2.4.5-3.1 1.8-.5 1.1-.5 2.5 0 3.7.5 1.4 1.7 2.5 2.9 3.3l3.8 2.6c1.1.9 2.2 2.2 2.4 3.7.1 1.6-1.6 2.1-2.3 3.4-.2.4-.3.8-.3 1.1 1.5-.3 3-.5 4.4-.5 2.3 0 4.5.4 6.3 1.2 3.8 1.7 5 3.4 6.4 5.7 1.7 2.8 3 8.2 5.2 11.6l.3.5c.8.1 1.7.3 2.5.5a10.32 10.32 0 0 1 4.4 2.6c1.2 1.2 1.9 2.7 2.6 4.1.4.7.7 1.4 1 2.1.8-.3 1.5-.7 2.3-.9-.4-1.2-.9-2.5-1.4-3.7-.6-1.4-1.4-2.8-2.2-4.1s-1.3-2.7-1.5-4.2a23.07 23.07 0 0 0-1.9-1.4c-1.1-.8-2.3-1.5-3.4-2.2-1-.7-2-1.5-2.6-2.7-.5-1.1-.5-2.3.4-3.1 1-.9 3.9-1.1 4.9-2 .6-.5.9-1.5.5-2.2-.2-.4-.6-.8-.9-1.2-1.2.4-2.2 1.2-3.4 1.3h-.2c-.8 0-1.4-.4-1.6-1.2-.2-.7-.2-1.4-.3-2.1-.2-1.5-.5-3-1-4.4s-1.2-2.8-2.1-4c-.8-1.2-2-2.3-3.5-2.5h-.3c-1.1 0-2.1.7-3 1.3-.5.3-1 .6-1.7.7H20c-.8 0-1.4-.4-1.9-1-.6-.6-1-1.3-1.5-1.9s-1-1.3-1.6-1.8c-1.2-1.1-2.5-2.1-4-2.8-1.3-.7-3-1.3-4.5-1.3" fill="#5fdcb2"/><path d="M45.4 55l-2.3.9.9 2.5c.8 2.5 1.7 4.6 2.3 5.2h.8c.7 0 1.7-.1 1.4-.8-1.2-3.1-2.1-4.3-3-7.2 0-.2 0-.4-.1-.6" fill="#3da8a9"/><path d="M38.3 28H38c-.3 0-.5.1-.8.2.3.4.7.7.9 1.2.4.7.1 1.7-.5 2.2-1 1-3.9 1.1-4.9 2-.9.8-1 2.1-.4 3.1.6 1.1 1.6 1.9 2.6 2.7 1.1.8 2.3 1.5 3.4 2.2.7.4 1.3.9 1.9 1.4v-.2c-.1-1.5 0-2.9.2-4.3l.6-4.4c.1-1.3.2-2.8-.3-4.1-.3-1.2-1.2-2-2.4-2" fill="#064"/><path d="M9.9 28c-2 .4-4 1.1-5.7 2-2 1.1-4.2 3.2-4.2 5.7 0 2.6 2.8 3.5 5 3.6 2 .1 6.7-.2 5.9 3.2-.3 1.2-.4 3.2.2 4.4.9 1.7 2.9 2.1 4.2 2.1h.3c3-.2 5-3.5 8.1-3.6h.2c5.1 0 10.7 8.1 14.5 13.5.7-.6 1.5-1.2 2.4-1.7l-8.2-10.6c-2.2-.4-4.5-.7-6.4-1.9-1-.7-1.9-1.5-2.4-2.6-.6-1.2-.5-2.4-.2-3.6s1.1-2.6.5-3.8c-.3-.7-1.1-1.1-1.8-1.4-.8-.3-1.6-.5-2.4-.6-1.6-.3-3.3-.4-4.9-.8-1.4-.3-2.9-.8-4-1.8-.6-.6-1.1-1.3-1.1-2.1" fill="#007662"/><path d="M40.7 57.2c-.8.5-1.6 1.1-2.4 1.7 1.7 2.4 3 4.2 3.8 4.6h.1c.5 0 1-2.9.8-3.3l-2.3-3" fill="#00b4b9"/><path d="M14.3 27.6c-1.5 0-3 .2-4.5.5 0 .8.5 1.5 1 2.1 1 1 2.6 1.5 4 1.8l4.9.8c.8.2 1.6.3 2.4.6.7.3 1.5.7 1.8 1.4.6 1.2-.2 2.6-.5 3.8s-.4 2.4.2 3.6c.5 1.1 1.4 2 2.4 2.6 2 1.3 4.2 1.5 6.4 1.9l-.3-.5c-2.2-3.4-3.4-8.8-5.2-11.6-1.4-2.3-2.6-4.1-6.4-5.7-1.7-1-3.9-1.4-6.2-1.3" fill="#00bf7f"/></svg>