<svg xmlns="http://www.w3.org/2000/svg" xml:space="preserve" width="55.8" height="90.2" style="enable-background:new 0 0 55.8 90.2"><path d="M18.6.3c-1.1 0-2.1.2-3 .9-2.1 1.5-1.2 4.3-.1 6.1 1.1 1.7 4 5.3.8 6.6-1.1.5-2.8 1.5-3.5 2.7-1 1.9.1 3.9.9 4.9 1.9 2.4 5.7 2.1 7.6 4.5 2.7 3.6 1.9 7.7.9 10.9h.5c1-3.4 2.1-7.4 2.2-8 1.5-6.6 4-12.7 6.9-18.7-2-3.8-5.5-7.2-9.2-9-1.1-.5-2.6-.9-4-.9" style="fill:#007662"/><path d="M45.1 0c-.8 0-1.7.1-2.7.2-.9.1-2.4.8-3.2 1.2-.8.4-1.4.9-2.1 1.4-1.4 1.2-2.9 3-3.7 4.6-.5 1-1 2-1.4 2.9.6 1.2 1.1 2.4 1.3 3.7.8 4.1.1 6.1-1 8.5-1.3 3-5 7-6.6 10.8L24 37.2h.3c1.2-2.8 3.2-5.8 6.9-6.2.4 0 1.6-.2 2.1-1 .4-.7.3-1.5.2-1.6-.2-.5-.5-1-.7-1.6-.2-.5-.5-1.1-.2-1.6s.8-.6 1.4-.6h.4c.9.1 1.7.3 2.6.4.4 0 .8.1 1.1.1.5 0 1 0 1.5-.1.7-.1 2.1-.7 2.5-1.3.5-.8.3-1.6-.1-2.3-.3-.6-.8-1-1.5-1.4-.8-.5-1.2-1-1-1.8.1-.2 0-.7.7-1.4 0 0 .9-1.1 2.7-1.4.4-.1.8-.1 1.2-.1 1.8 0 2.5.8 3.9.9h.3c.8 0 1.5-.2 2.5-.7 1.4-.8 2.7-1.6 3.7-3.4.8-1.4 1.5-3.4 1.2-4.7-.8-3.9-3.8-5.4-3.8-5.4-2.6-1.4-4.5-2-6.8-2" style="fill:#61dcb3"/><path d="M31.9 10.4c-2.9 6-5.5 12.1-6.9 18.7-.1.5-1.3 4.5-2.2 8 .4 0 .8.1 1.2.2l1.7-3.9c1.5-3.7 5.3-7.8 6.6-10.8 1.1-2.5 1.8-4.5 1-8.5-.3-1.3-.8-2.5-1.4-3.7" style="fill:#00cb91"/><path d="M20.4 36.9c-1.5 0-3 .3-4.2 1.1-.8.6-1.3 1.3-1.8 2.1l-1.5 2.7c-1 1.9-1.8 3.8-2.6 5.7-1.5 3.9-2.6 7.9-3.2 12-.6 4.3-.5 8.7-1.2 13.1-.7 4.1-2 8.2-4 12-.5.9-1.1 1.8-1.5 2.8-.1.2-.1.3-.2.5-.1.3-.1.5-.2.7-.1.3.1.5.3.5.2 0 .4-.1.6-.3 3-3.5 5.9-7.1 8.7-10.8 2.7-3.5 5.5-6.9 7.7-10.7 1.1-1.8 2-3.8 2.7-5.8.7-2 1.3-4.1 2.3-6 1.8-3.5 4.6-6.5 6.4-10 .8-1.6 1.6-3.4 1.4-5.2-.2-1.7-1.4-2.9-3.2-3.5-.8-.3-1.7-.5-2.7-.7-1.1 2.5-1.6 4.7-2.2 4.9-.1 0-.3.1-.4.1-.1 0-.2 0-.2-.1-.1 0-.3-.1-.3-.3-.2-1.1.5-2.8 1.1-4.9-.3 0-.5 0-.8-.1-.3.2-.6.2-1 .2" style="fill:#fc8e2c"/><path d="M22.2 37c-.6 2.1-1.3 3.8-1.1 4.9 0 .2.2.3.3.3V42c.1-.4.7-2.5 1.3-4.9-.1 0-.3-.1-.5-.1" style="fill:#000900"/><path d="m24 37.2-2 4.5c-.1.3-.3.5-.5.5 0 0 .1.1.2.1.2 0 .3-.1.4-.1.6-.2 1.1-2.5 2.2-4.9-.1-.1-.2-.1-.3-.1" style="fill:#5fb405"/><path d="M22.8 37.1c-.7 2.4-1.3 4.5-1.3 4.9v.2c.2 0 .5-.2.5-.5l2-4.5c-.4 0-.8-.1-1.2-.1" style="fill:#00a200"/></svg>