<svg xmlns="http://www.w3.org/2000/svg" xml:space="preserve" width="20.3" height="17.9" style="enable-background:new 0 0 20.3 17.9"><path d="M2.2 2.3C.7 3.5 0 5.4 0 7.3s.8 3.7 1.8 5.2c1.9 2.9 5.3 5 8.7 4.8 2.8-.2 5.3-2.1 6.6-4.5 1.3-2.5 1.3-5.5.3-8.1-.7-1.7-1.8-3.2-3.4-4-.9-.5-2-.6-3.1-.5-1.1.1-1.7 1-2.8 1.3-.8.2-1.6-.1-2.4-.2-1.3-.1-2.5.2-3.5 1" style="fill:#ffe79c"/><path d="M13.6.4c.1 0 .3.1.4.2 1.6.8 2.8 2.4 3.4 4 1 2.6 1 5.6-.3 8.1s-3.8 4.3-6.6 4.5h-.6c-.4 0-.8 0-1.2-.1 1.1.4 2.3.7 3.5.7.7 0 1.5-.1 2.2-.3 2.7-.8 4.8-3.1 5.5-5.8s.2-5.7-1.4-8c-1-1.5-2.4-2.8-4.2-3.3h-.7" style="fill:#dda985"/><path d="M13.2.3c-.6 0-1.2.1-1.8.3-1.1.4-1.5 1.5-2.5 2-.8.4-1.6.3-2.4.4-1.3.1-2.5.7-3.3 1.7C2 6.1 1.7 8.1 2.1 9.9c.4 1.8 1.5 3.4 2.8 4.7 1.1 1.1 2.4 1.9 3.8 2.5.4.1.8.1 1.2.1h.6c2.8-.2 5.3-2.1 6.6-4.5 1.3-2.5 1.3-5.5.3-8.1-.7-1.7-1.8-3.2-3.4-4-.1-.1-.3-.1-.4-.2-.1 0-.3-.1-.4-.1" style="fill:#ffd564"/></svg>