<svg xmlns="http://www.w3.org/2000/svg" width="45.3" height="62.3" xmlns:v="https://vecta.io/nano"><path d="M39,31.3c0,15.1-3.5,27.5-19.5,27.4C4.4,58.5,0,46.4,0,31.3S3.1,3.9,19.5,3.9C35.2,4,39,16.2,39,31.3" fill="#f1c630"/><path d="M33.4 9.6c4.2 5 5.6 12.9 5.6 21.7 0 15-3.5 27.4-19.2 27.4h-.3c-2 0-3.9-.3-5.5-.7 3 2.8 6.7 4.4 11.4 4.4 1.5 0 3.1-.2 4.7-.5 16-3.2 16.9-16.4 13.7-31.5-1.9-9.1-4.9-16.8-10.4-20.8" fill="#ffe79c"/><path d="M23.7 6.5c-1.6 0-3.3.2-5.1.6-16.5 3.3-17 16.3-13.8 31.5 1.7 8.2 4.5 15.2 9.1 19.4 1.7.4 3.5.7 5.5.7h.3C35.5 58.7 39 46.3 39 31.3c0-8.9-1.3-16.7-5.6-21.7-2.6-2-5.8-3.1-9.7-3.1" fill="#fff55f"/><path d="M33.3 31c1.2 8.4-.7 15.8-8.5 16.8-8.1 1-11.8-5.2-13.1-13.6-1.2-8.4 1-15.7 8.5-16.8 7.1-1 11.9 5.2 13.1 13.6z" fill="#f1c630"/><g fill="#fff8e6"><path d="M24.3 27.4c.4-1 1.2-1.8 2.2-2.3l.3-.1.2.1c.2.1.3.2.3.5 0 .2-.1.3-.2.5-.5.7-1.2 1.2-1.8 1.7-.2.2-.7.7-1 .5-.3-.1-.1-.6 0-.9h0zm2.5 1c.7-.8 1.8-1.3 2.8-1.4h.3l.2.2c.1.2.2.3.2.5s-.2.3-.3.4c-.7.4-1.5.8-2.3 1-.3.1-.9.4-1.1.1-.3-.2 0-.6.2-.8h0zm-6.2-4.8c.4-1 1.2-1.8 2.2-2.3l.3-.1.2.1c.2.1.3.2.3.5 0 .2-.1.3-.2.5-.5.7-1.2 1.2-1.8 1.7-.2.2-.7.7-1 .5s-.1-.7 0-.9h0zm2.5.9c.7-.8 1.8-1.3 2.9-1.4h.3l.2.2c.1.2.2.3.2.5s-.2.3-.3.4c-.7.4-1.5.8-2.3 1-.3.1-.9.4-1.1.1-.4-.2-.1-.6.1-.8h0zm2.5 6.3c.9-.6 2-.8 3.1-.6l.2.1.1.2c.1.2.1.4 0 .6s-.3.2-.4.3c-.8.2-1.6.4-2.5.4-.3 0-1 .1-1.1-.2-.1-.4.3-.6.6-.8zm2.3 2c.9-.6 2-.8 3.1-.6l.2.1.1.2c.1.2.1.4 0 .6s-.3.2-.4.3c-.8.2-1.6.4-2.5.4-.3 0-1 .1-1.1-.2-.1-.4.4-.7.6-.8zm-1.3 2.8c.9-.5 2.1-.7 3.1-.5l.2.1.1.2c.1.2.1.4 0 .6s-.3.2-.4.2a10.68 10.68 0 0 1-2.5.3c-.3 0-1 .1-1.1-.2s.3-.5.6-.7h0zm1.4 2.3c1.1-.2 2.2 0 3.1.6l.2.2v.2c0 .2 0 .4-.2.5-.1.1-.3.1-.5.1-.8-.1-1.7-.3-2.4-.6-.3-.1-.9-.2-1-.6 0-.3.5-.4.8-.4zm-2.5 1.2c1.1.1 2.1.6 2.9 1.4l.1.2v.2c-.1.2-.1.4-.3.5s-.3 0-.5-.1c-.8-.3-1.5-.7-2.2-1.2-.2-.2-.8-.5-.8-.8.1-.3.6-.2.8-.2h0zm.7 2.9c1.1.1 2.1.6 2.9 1.4l.1.2v.2c-.1.2-.1.4-.3.5s-.3 0-.5-.1c-.8-.3-1.5-.7-2.2-1.2-.2-.2-.8-.5-.8-.8 0-.2.6-.2.8-.2h0zm-7.1-13.3c-.8-.7-1.9-1.1-3-1.1h-.3l-.2.2c-.1.2-.2.4-.1.5.1.2.2.3.4.3.8.4 1.6.6 2.4.8.3 0 .9.3 1.1 0 .3-.2-.1-.5-.3-.7h0z"/><use href="#B"/><path d="M19.7 24.1c-.6-.9-1.5-1.6-2.5-1.9h-.3l-.2.1c-.1.1-.3.3-.3.5s.2.3.3.4c.6.6 1.3 1 2.1 1.4.2.1.8.5 1.1.3.3-.1 0-.5-.2-.8h0z"/><use href="#B" x="1.7" y="-5.1"/><path d="M19.4 32.3c-1.1-.1-2.2.1-3.1.8l-.2.2v.2c0 .2 0 .4.2.5.1.1.3.1.5.1.8-.1 1.7-.4 2.4-.7.2-.1.9-.3.9-.6.1-.4-.4-.4-.7-.5h0zm-1.3 2.8c-1.1-.1-2.2.1-3.1.8l-.1.1v.2c0 .2 0 .4.2.5.1.1.3.1.5.1.8-.1 1.7-.4 2.4-.7.2-.1.9-.3.9-.6s-.5-.4-.8-.4h0zm2.5 2c-1.1-.1-2.2.3-3 .9l-.2.2v.2c0 .2.1.4.2.5a.45.45 0 0 0 .5 0c.8-.2 1.6-.4 2.4-.8.2-.1.9-.3.9-.7 0-.2-.5-.3-.8-.3h0zm-.3 2.7c-1 .3-2 1-2.6 1.9l-.1.2.1.2c.1.2.2.4.4.4s.3-.1.5-.1c.7-.4 1.4-1 2-1.6.2-.2.8-.6.6-.9s-.7-.2-.9-.1zm2.1.7c-.9.5-1.7 1.4-2 2.5v.3l.1.2a.55.55 0 0 0 .5.3c.2 0 .3-.1.4-.3a9.51 9.51 0 0 0 1.5-2c.1-.2.6-.8.4-1.1s-.7 0-.9.1h0zm1.2 2.5c-.7.8-1.1 1.9-1.1 3v.3l.2.2c.2.1.4.2.5.1.2-.1.3-.2.3-.4.4-.8.6-1.6.8-2.4 0-.3.3-.9 0-1.1-.2-.3-.5.1-.7.3h0z"/></g><path d="M15.6 0c-1.1 0-2.5.8-2.6.8-1.2 2-.9 3.8-.8 4.1 1.4-.5 2.9-.8 4.7-.9-.8-1.9 0-3.2 0-3.2a1.37 1.37 0 0 0-1.3-.8" fill="#3767d3"/><path d="M16.8 4c-1.7.2-3.3.5-4.7.9V5c.1 1 .8 1.3 1.5 1.3 1.5 0 3.7-1.2 3.7-1.2-.2-.4-.4-.7-.5-1.1" fill="#345028"/><defs ><path id="B" d="M17.3 30.7a4.42 4.42 0 0 0-3.2 0l-.2.1-.1.2c0 .2-.1.4.1.6.1.1.3.2.5.2.8.1 1.7.1 2.5 0 .3 0 1 0 1.1-.4 0-.4-.5-.6-.7-.7z"/></defs></svg>