<svg xmlns="http://www.w3.org/2000/svg" width="75.2" height="62.9" xmlns:v="https://vecta.io/nano"><ellipse cx="54" cy="14.8" rx="5.4" ry="5.9" fill="#ffe79c"/><ellipse cx="59.9" cy="20.4" rx="6.4" ry="6.9" fill="#fbeaac"/><ellipse cx="51.3" cy="8.3" rx="5.2" ry="5.6" fill="#fff3cd"/><ellipse cx="60" cy="30.4" rx="8" ry="8.7" fill="#fff9b0"/><ellipse cx="47.8" cy="15.9" rx="7.3" ry="8" fill="#eae5bb"/><ellipse cx="51.7" cy="28.4" rx="7.6" ry="8.2" fill="#fff3cd"/><use href="#B" fill="#fff9b0"/><ellipse cx="14.3" cy="19.1" rx="5.4" ry="5.9" fill="#f0eed7"/><ellipse cx="21.2" cy="14.6" rx="5.4" ry="5.9" fill="#ffe79c"/><ellipse cx="43.5" cy="5.9" rx="5.4" ry="5.9" fill="#f0eed7"/><ellipse cx="27.7" cy="17.9" rx="8.1" ry="8.8" fill="#eae5bb"/><path d="M25.6 31c0 5.2-3.9 9.4-8.6 9.4S8.3 36.1 8.3 31s3.9-9.4 8.6-9.4 8.7 4.2 8.7 9.4" fill="#ffe79c"/><use href="#B" x="-16" y="3" fill="#ffeebf"/><ellipse cx="35.7" cy="22.1" rx="5.5" ry="5.9" fill="#f0eed7"/><path d="M36.7 30.4c0 3.8-2.9 7-6.4 7s-6.4-3.1-6.4-7 2.9-7 6.4-7 6.4 3.1 6.4 7" fill="#fff7e6"/><g fill="#faf0d9"><ellipse cx="25.9" cy="8.5" rx="5.2" ry="5.6"/><path d="M61.2 37.1c0 4.9-3.6 8.8-8.1 8.8S45 42 45 37.1s3.6-8.8 8.1-8.8 8.1 4 8.1 8.8"/></g><path d="M28.2 23.8c0 4.5-3.4 8.2-7.6 8.2S13 28.3 13 23.8s3.4-8.2 7.6-8.2 7.6 3.6 7.6 8.2" fill="#fbebc5"/><ellipse cx="35.3" cy="10.3" rx="7.6" ry="8.2" fill="#fff9b0"/><ellipse cx="41.8" cy="20.9" rx="5.2" ry="5.6" fill="#fff6dd"/><g fill="#fff"><path d="M23.3 59.3a8.11 8.11 0 0 0 1.1.3l2 .6c-.2-.1-.3-.2-.5-.3l-1.5-.3c-.5-.1-.9-.2-1.1-.3m-1.2-.4c.2.1.5.2.7.2h-.1c-.1-.1-.4-.1-.6-.2M5.8 25.8c.7.2 1.3.8 1.8 1.3.4.5.7.9 1 1.5-.3-.5-.6-1-1-1.4-.5-.6-1.1-1.1-1.8-1.4m32.7 7.8c.4.1.8.3 1.2.6 1.7 1.1 2 2.9 1.7 4.7.3-1.8 0-3.5-1.7-4.7l-1.2-.6"/><path d="M8.6 28.6c.4.7.7 1.3 1 2l2.3 4.5c.2.3.3.7.6.7-.2-.1-.4-.4-.5-.7l-2.3-4.5c-.4-.6-.7-1.3-1.1-2m10.9 4c1.6.5 2 2.4 2.1 4 0 .9 0 1.9.4 2.8.2.4.5.7.9.8-.3-.1-.7-.4-.8-.8-.4-.8-.3-1.9-.4-2.8-.2-1.6-.6-3.5-2.2-4"/></g><path d="M75.1 27.5c.2-2.2.1-4.5-1-6.4-.4-.8-1.3-2.1-2.3-1.5-1.1.6-1.7 2-2.1 3.1-.5 1.2-.8 2.4-1.7 3.3-.4.4-.8.8-1.3 1-.7.2-1.3 0-1.9-.2-1.1-.3-2.1-.3-3.1.4-.8.7-1.4 1.6-1.9 2.6s-.9 2.2-1.7 3c-1 1-3.6-.8-4.7-1.2-1.1-.3-2.2-.7-3.3-.2-.8.3-1.4.9-2 1.6-1 1.4-.2 5.3-1.9 6.1-1.3.6-3 .2-4.2-.1s-2.5-.5-3.8-.3c-1.2.2-2.2.7-3 1.6-.9 1.1-1 2.2-1.5 3.5-.2.6-.4 1.4-.9 1.8s-1.2.3-1.8.2c-1-.2-2-.4-3-.2-1.9.4-2.8.9-4.1 2.5-.3.4-.8 1.2-1.2 2.5 0 0-.3 1-.4 2 0 .9 0 2 .5 3.2s2 3.3 3.1 4c2.6 1.5 5.3 2.4 8.2 2.8 5.2.7 12.9-.2 18.1-2.2 6.7-2.7 9.9-5.5 13-9 3.9-4.5 6.5-10 8.1-15.8.8-2.7 1.5-5.4 1.8-8.1" fill="#17a27b"/><path d="M22.8 59.1c.1 0 .2.1.4.2a.76.76 0 0 0-.4-.2m-18-33.4c-1.2 0-2.3.7-3.1 1.7C.1 29.3-.2 31.9.1 34.3c.3 2.6 1.2 5 2.3 7.3C3.5 44 5 46.2 6.6 48.2c3.3 4.1 7.6 7.4 12.4 9.5l3 1.2a18.77 18.77 0 0 1-3-1.2c-4.8-2.2-9.1-5.5-12.4-9.5-1.7-2-3.1-4.3-4.2-6.6s-2-4.8-2.3-7.3c-.3-2.4.1-5 1.6-6.9.8-1 1.9-1.7 3.1-1.7h.1c.3 0 .6.1.9.2-.3-.2-.6-.2-1-.2h0" fill="#007662"/><path d="M36.7 33.4H36h.7c.6 0 1.2.1 1.8.3-.6-.3-1.2-.4-1.8-.3" fill="#00e687"/><path d="M18.1 32.5c-1 .1-1.9.6-2.7 1.2L13.9 35c-.3.2-.6.5-.9.7-.2.1-.3.2-.4.2h-.1.2a.76.76 0 0 0 .4-.2c.3-.2.6-.4.9-.7l1.5-1.3c.7-.6 1.6-1.1 2.6-1.2" fill="#00d577"/><path d="M29.3 37.3C28 38.4 26.6 39.5 25 40c-.5.2-1 .3-1.5.3-.2 0-.5 0-.7-.1.2.1.5.1.7.1.5 0 1.1-.1 1.5-.3 1.7-.5 3-1.6 4.3-2.7m-10.8-4.8h-.4.4.1c.3 0 .6.1.8.1-.2-.1-.5-.1-.9-.1" fill="#00dc92"/><path d="M36 33.4c-1.2.1-2.3.6-3.3 1.2-1.2.7-2.3 1.7-3.4 2.7l3.4-2.7c1-.6 2.2-1.1 3.3-1.2" fill="#00e4b0"/><g fill="#00ecc4"><path d="M4.8 25.7c-1.2 0-2.3.7-3.1 1.7C.1 29.3-.2 31.9.1 34.3c.3 2.6 1.2 5 2.3 7.3C3.5 44 5 46.2 6.6 48.2c3.3 4.1 7.6 7.4 12.4 9.5l3 1.2c.2.1.5.2.7.2h.1c.1 0 .2.1.4.2a12.59 12.59 0 0 0 1 .3l1.5.3c-1.1-.7-2.6-2.7-3-4-.5-1.2-.5-2.3-.5-3.2.1-1 .4-2 .4-2 .4-1.3.9-2.1 1.2-2.5 1.3-1.6 2.2-2.1 4.1-2.5.4-.1.7-.1 1-.1.7 0 1.3.1 1.9.3.3.1.6.1.9.1s.6-.1.9-.3c.5-.4.7-1.2.9-1.8.4-1.3.6-2.4 1.5-3.5.3-.3.6-.6.9-.8-1-.9-1.8-2-2.3-3.3-.4.3-.9.6-1.4.8-.4 4.1-3.6 7.2-7.5 7.2-2.7 0-5.1-1.6-6.5-4-.5.1-1 .1-1.5.1-4.8 0-8.6-4.2-8.6-9.4 0-.8.1-1.6.3-2.3-.3-.5-.6-1-1-1.5-.5-.6-1.1-1.1-1.8-1.3-.1-.1-.4-.2-.8-.2h0m32 7.7c-.3 0-.5 0-.8.1-.5 1.1-1.2 2-2.2 2.7.5 1.3 1.3 2.5 2.3 3.3.6-.4 1.3-.7 2.1-.8.3-.1.7-.1 1-.1.7 0 1.4.1 2.1.3.3-1.8 0-3.5-1.7-4.7l-1.2-.6c-.5-.1-1-.2-1.6-.2M8.6 28.6c-.2.8-.3 1.5-.3 2.3 0 5.2 3.9 9.4 8.6 9.4.5 0 1-.1 1.5-.1-.7-1.2-1.1-2.7-1.1-4.2 0-1.2.3-2.4.7-3.5-1 .1-1.8.6-2.6 1.2-.5.4-1 .9-1.5 1.3-.3.2-.6.5-.9.7-.2.1-.3.2-.4.2h-.2c-.2-.1-.4-.4-.6-.7-.8-1.5-1.6-3-2.3-4.5-.2-.8-.5-1.4-.9-2.1"/><path d="M18.5 32.5H18c-.5 1.1-.7 2.2-.7 3.5 0 1.6.4 3 1.1 4.2 1.3 2.4 3.7 4 6.5 4 3.9 0 7.1-3.2 7.5-7.2-.7.3-1.4.4-2.2.4-.3 0-.6 0-.9-.1-1.3 1.1-2.6 2.2-4.3 2.7-.5.2-1 .3-1.5.3-.2 0-.5 0-.7-.1-.4-.1-.7-.4-.9-.8-.4-.8-.3-1.9-.4-2.8-.1-1.6-.5-3.5-2.1-4-.2-.1-.5-.1-.8-.1h-.1"/><path d="M36 33.4c-1.2.1-2.3.6-3.3 1.2-1.2.7-2.3 1.7-3.4 2.7.3.1.6.1.9.1.8 0 1.5-.1 2.2-.4.5-.2 1-.5 1.4-.8a7.63 7.63 0 0 0 2.2-2.8"/></g><path d="M39.2 38.6c-.3 0-.7 0-1 .1a5.39 5.39 0 0 0-2.1.8c-.3.2-.7.5-.9.8-.9 1.1-1 2.2-1.5 3.5-.2.6-.4 1.4-.9 1.8-.3.2-.6.3-.9.3s-.6-.1-.9-.1c-.7-.2-1.3-.3-1.9-.3-.3 0-.7 0-1 .1-1.9.4-2.8.9-4.1 2.5-.3.4-.8 1.2-1.2 2.5 0 0-.3 1-.4 2 0 .9 0 2 .5 3.2s1.9 3.3 3 4a36.06 36.06 0 0 0 5.9.5 28.1 28.1 0 0 0 5.9-.6c5.2-1.2 8.8-3.8 11.2-8.6.6-1.1 1.1-2.4.9-3.7-.2-1.1-.8-2.1-1.8-2.5-.3-.1-.6-.2-.9-.2-.7 0-1.4.3-2 .7-.9.6-1.8 1.7-3 1.8H42c-1.1 0-1.9-1.2-2-2.2-.2-1.4.5-2.8 1-4.1.2-.6.5-1.3.6-2-1-.2-1.7-.3-2.4-.3" fill="#00955e"/><defs ><path id="B" d="M48.4 33c0 4.5-3.4 8.2-7.5 8.2s-7.5-3.7-7.5-8.2 3.4-8.2 7.5-8.2 7.5 3.7 7.5 8.2"/></defs></svg>