<svg xmlns="http://www.w3.org/2000/svg" width="34.3" height="42.5" xmlns:v="https://vecta.io/nano"><path d="M12.3 1.7c.2 3.9-2.2 7.4-4.7 10.4s-5.3 6-6.6 9.6c-1.2 3.5-1.2 7.5.3 11 1.3 3 3.7 5.6 6.8 7.4 3.5 2 8.1 2.7 12.2 2.4 2.1-.1 4.7-.9 6.5-1.9 1.7-1 3.2-2.3 4.4-3.8 2.4-2.8 3.4-6.1 3.3-9.7-.2-3.7-2.4-6.8-5.1-9.4-2.8-2.7-6-4.9-8.6-7.7-1.3-1.3-2.3-2.8-3.2-4.4-.8-1.4-1.6-2.9-2.7-4.1C14 1 13.4.5 12.7.1c-.5-.3-1 0-.6.7-.1 0 .1.5.2.9" fill="#173a91"/><path d="M28.8 25.4c1.5 6.6-3 13.3-10 14.8-7 1.6-13.9-2.5-15.4-9.1s2.1-17 9.1-18.6c7.1-1.5 14.8 6.3 16.3 12.9" fill="#f0eed7"/><path d="M17.3 12.5h-.8c5.7 1.3 11.1 7.5 12.3 12.9 1.5 6.6-3 13.3-10 14.8a10.68 10.68 0 0 1-2.5.3c.8.1 1.5.2 2.3.2 1 0 2-.1 3-.3 7-1.6 11.5-8.2 10-14.8-1.3-6-7.8-13.1-14.3-13.1" fill="#9b3f44"/><path d="M20 36.4c-.5 0-1-.3-1.1-.8-.2-.6-.7-3.7 0-3.9h.1c.7 0 2 2.6 2.2 3.2s-.1 1.3-.8 1.5H20m-4.8-2.5c-.2 0-.5-.1-.7-.2-.5-.4-.7-1.1-.3-1.7.3-.5 2.2-2.5 3-2.5h.2c.5.4-.8 3.2-1.1 3.8-.4.5-.7.6-1.1.6m-4.4-1.1a1.1 1.1 0 0 1-1-.6c-.3-.6-.2-1.3.4-1.6.5-.3 2.5-1.1 3.4-1.1.2 0 .4.1.5.2.3.6-2 2.6-2.6 3-.3.1-.5.1-.7.1m12.1.5c-.3 0-.7-.2-.9-.4-.4-.5-2-3.2-1.5-3.7 0 0 .1-.1.2-.1.7 0 2.7 1.8 3.1 2.2.4.5.3 1.3-.2 1.7-.1.2-.4.3-.7.3m2.8-4.1c-.8 0-3.7-.4-3.7-1.1s3.1-1.3 3.7-1.3 1.2.5 1.2 1.2-.5 1.2-1.2 1.2m-14-.7h-.9c-.7-.1-1.1-.7-1-1.4.1-.6.6-1 1.2-1h.2c.7.1 3.6 1.1 3.5 1.8 0 .5-1.8.6-3 .6m7.7-1.5c-.2 0-.4-.1-.5-.2-.3-.6 2-2.6 2.6-3 .2-.1.4-.2.6-.2a1.1 1.1 0 0 1 1 .6c.3.6.2 1.3-.4 1.6-.3.4-2.3 1.2-3.3 1.2m-5.6-1.9c-.9 0-2.9-.9-3.4-1.2-.5-.4-.7-1.1-.3-1.7.2-.3.6-.5 1-.5.2 0 .5.1.7.2.5.4 2.9 2.5 2.5 3-.2.1-.3.1-.5.2m2.9.3c-.7 0-1.8-2.8-1.9-3.4s.3-1.3.9-1.4h.3c.6 0 1 .4 1.2.9 0 .6.1 3.7-.5 3.9 0-.1 0-.1 0 0m2.2-1.1c-.7-.2-.2-3.3 0-3.9.2-.5.6-.8 1.1-.8.1 0 .3 0 .4.1.6.2 1 .9.7 1.5-.1.5-1.5 3.1-2.2 3.1m-2.4-11.8c-.3 0-.7.1-1 .2-7 1.6-10.6 12-9.1 18.6 1.1 4.9 5.2 8.4 10 9.2a10.68 10.68 0 0 0 2.5-.3c7-1.6 11.5-8.2 10-14.8-1.3-5.4-6.6-11.6-12.4-12.9" fill="#dc7559"/><g fill="#de230d"><path d="M20.7 29.2c-.1 0-.1 0-.2.1-.5.4 1 3.2 1.5 3.7.2.3.6.4.9.4s.5-.1.8-.3c.5-.4.6-1.2.2-1.7s-2.4-2.2-3.2-2.2M19 31.6s-.1 0 0 0c-.7.2-.2 3.3 0 4 .2.5.6.8 1.1.8.1 0 .2 0 .4-.1.6-.2 1-.9.8-1.5-.3-.6-1.7-3.2-2.3-3.2m6.7-4.8s-.1 0 0 0c-.7 0-3.8.7-3.8 1.3s3 1.1 3.7 1.1h.1c.7 0 1.2-.6 1.2-1.2-.1-.6-.6-1.2-1.2-1.2M20 19.5c-.5 0-1 .3-1.1.8-.2.6-.7 3.7-.1 3.9h.1c.7 0 2.1-2.6 2.3-3.2s-.1-1.3-.7-1.5c-.2.1-.4.1-.5 0m-6.4 10.1c-.9 0-2.9.8-3.4 1.1-.6.3-.8 1.1-.4 1.6a1.1 1.1 0 0 0 1 .6c.2 0 .4-.1.6-.2.6-.3 2.9-2.4 2.6-3-.1-.1-.2-.1-.4-.1m3.5 0c-.7 0-2.6 2-3 2.5-.4.6-.2 1.3.3 1.7.2.1.4.2.7.2.4 0 .8-.2 1-.5.4-.6 1.7-3.4 1.1-3.8.1-.1 0-.1-.1-.1m5.1-5.9c-.2 0-.4 0-.6.2-.6.3-3 2.4-2.6 2.9.1.1.2.2.5.2.9 0 2.9-.8 3.4-1.1.6-.3.8-1.1.4-1.6-.3-.4-.7-.6-1.1-.6M11 26.1c-.6 0-1.1.4-1.2 1-.1.7.3 1.3 1 1.4h.9c1.2 0 3-.2 3-.6.1-.7-2.9-1.7-3.5-1.8H11"/><path d="M15.8 20.5h-.3c-.6.2-1 .8-.9 1.4s1.3 3.4 1.9 3.4c.6-.1.5-3.3.3-3.9.1-.5-.4-.9-1-.9M11 21.7c-.4 0-.8.2-1 .5-.4.5-.2 1.3.3 1.7.5.3 2.5 1.2 3.4 1.2.2 0 .3 0 .4-.1.4-.5-2-2.7-2.5-3-.2-.3-.4-.3-.6-.3"/></g></svg>