<svg xmlns="http://www.w3.org/2000/svg" width="61" height="73.4" xmlns:v="https://vecta.io/nano"><path d="M46.7 0c-2 0-3.9 1.1-4.8 3.1-1.4 3.1-.9 11.3-1 14.3-.2 6.8-2.1 12.6-2.6 13.9h.2.6.6.2 1.6c1.2 0 2.5.1 3.7.1s2.5.1 4.4.3c2.2.2 3.2.3 5.7.7.2 0 .3.1.5.1.5-4 .9-10.9.7-13.3-.2-2.5-1.7-11.6-3.3-14.1-1.4-2.3-2.4-4.3-5.1-5-.4 0-.9-.1-1.4-.1" fill="#ffe79c"/><path d="M57.9 38c.2-1.1.3-3 .1-4.1-.2-.9-1.8-1.2-2.7-1.4l-5.7-.7c-4.9-.4-5.8-.3-10.6-.4-1.2 0-1.9 0-3.1.1-.6 0-.8.5-.9 1.1-.1.5.1.9.2 1.3-1.6 4-1.2 3.5-5.6 9.3-6.1 8.1-8.1 5.4-17.3 15.7-3.8 4.2-6.6 3.6-12 5.5-.3.1-.5.5-.3.7L2.3 68c.6.7 1.2 1.3 2.1.9.9-.3 1.6-1.1 2.4-1.6.9-.5 1.8-.9 2.7-1.3 3.9-1.4 4.7 0 8.8 0 4.4 0 8.8.1 13-1.1 3.6-1 7-2.8 9.9-5.1 6.6-5 8.5-7 13.1-14.2 1.7-2.7 1.7-2.9 2-3.4.7-1 1.3-2.8 1.6-4.2" fill="#efc800"/><path d="M57.3 33.1c.3.2.6.4.6.8.2 1.1.2 3-.1 4.1-.3 1.5-.9 3.3-1.4 4.3-.3.5-.3.7-2 3.4-4.1 6.3-6 8.6-10.9 12.6 0 .1.1.3.1.4.4 2 .3 3.9.2 5.9-.1 1.9-.1 3.8.6 5.6.9 2.2 2.1 3.2 3.5 3.2.9 0 1.9-.4 3-1.3 2.3-1.8 4.7-6 5.9-9.5 2.9-8.3 3.9-11.9 4.1-20 .1-3.2-1-6.5-2-8.1-.3-.7-.9-1.1-1.6-1.4m-19-1.8h-.2c-1.7.2-2.6-.3-3.1.9-.2.6 0 .8.1 1.7 0 0 0-.1.1-.2-.1-.4-.3-.8-.2-1.3s.3-1 .9-1.1c.9.1 1.6.1 2.4 0-.1 0-.1 0 0 0" fill="#ffe79c"/><path d="M41.5 31.3h-1.6-.2-.6-.6-.2.4.4l6.2.1-3.8-.1" fill="#fffbb3"/><path d="M38.6 31.4h-.4l-2.3.1c-.6 0-.8.5-.9 1.1-.1.5.1.9.2 1.3 0 0 0 .1-.1.2 0 .5.1 1.1 0 2.1s-.1 2 0 2.9c.2 1.9.6 3.8 1.4 5.6.9 1.8 2.1 3.2 3.3 4.8 2.1 2.9 3 5.3 3.8 8.8 4.9-3.9 6.9-6.2 10.9-12.6 1.7-2.7 1.7-2.9 2-3.4.5-1 1.1-2.8 1.4-4.3.2-1.1.3-3 .1-4.1-.1-.3-.3-.6-.6-.8-1.1-.5-2.6-.7-4.4-1-2.1-.3-4.4-.5-6.4-.6-.4 0-.8-.1-1.3-.1-1.8-.1-3.3-.1-6.2-.1-.2.1-.3.1-.5.1" fill="#fff539"/></svg>