<svg xmlns="http://www.w3.org/2000/svg" xml:space="preserve" width="60.5" height="74.3" style="enable-background:new 0 0 60.5 74.3"><path d="M40.3 33.5c-.5.1-11.8 2.3-14.4 12.9 0 0-2.8 16.7 16 15.7 0 0 7.7-.9 7.6 12.2 0 0 3.4-1.8 3.5-9.7 0 0 0-5 2.4-7.4 0 0 10.2-9.1 1.7-19.2 0 0-5.7-6.9-16.8-4.5" style="fill:#a4c3f1"/><path d="M14.7 8.3h-.6c-4.4.2-9 1.5-12.5 4.3C.8 13.2.2 14 0 15c-.1.9.1 1.8.4 2.7.6 1.7 1.7 3.2 3.1 4.3 1.4 1.2 3.2 2 5 2.2.6.1 1.2.1 1.8.1 1.6 0 3.1-.2 4.7-.3 1.4-.1 2.2-.4 3.3-.4.4 0 .8 0 1.2.1.7.1 1.4.4 1.9.8.8.5.9 1.1 1 1.4 0 .2-.2.8-.3 1-.5.8-.9 1.3-1.4 2-.5.7-1 1.3-1.2 2.1-.3.8-.4 1.8.1 2.6s1.6.9 2.5.9h.2c1 0 1.9-.2 2.8-.4 1-.3 1.9-.7 2.8-.9.3-.1.7-.2 1-.2.4 0 .8.1 1.1.5.4.5.2 1.2.1 1.8-.2.6-.4 1.2-.5 1.9s.1 1.3.6 1.8c1.7-1.7 3.5-2.8 5.2-3.6-1.7-1.7-3.1-3.5-4.3-5.5-1.9-3-3.4-6.4-4.4-9.8-.5-1.6-.8-3.3-.9-5l-1.2-1.2c-1.5-1.4-3-2.9-4.8-4-.8-.5-1.7-.9-2.6-1.2-.8-.3-1.6-.4-2.5-.4" style="fill:#30ac89"/><path d="M35.4 35.2c-1.7.8-3.5 2-5.2 3.6.7.6 1.7.6 2.5.7H40c.1 0 .2 0 .3-.1h-.1c-.2 0-.5-.1-.6-.3l-.8-.7c-1.1-1-2.3-2.1-3.4-3.2" style="fill:#2cd2e9"/><path d="M35.8 0c-2.3 0-4.7 1.5-6.2 3.1-3.1 3.3-4.1 7.6-3.8 11.9 5.3 5.5 9.5 12 12.6 19 .8-.2 1.4-.4 1.7-.5 0-1.5.1-2.9.5-4.3 1-3.3 3.3-6.1 4.4-9.4.5-1.4.6-2.9-.2-4.2-.8-1.3-2.1-1.4-3.5-1.5-3.9-.2-2.2-5.2-1.7-7.4.6-2.3.4-5.7-2.4-6.5-.5-.1-.9-.2-1.4-.2" style="fill:#007662"/><path d="M40.1 33.6c-.3.1-.9.2-1.7.5.3.7.6 1.4.9 2l1.2 3c.1.2 0 .2-.1.3.2 0 .3-.2.3-.5-.3-1.7-.6-3.5-.6-5.3" style="fill:#00b4b9"/><path d="M25.8 15c.1 1.7.5 3.3.9 5 1 3.4 2.5 6.8 4.4 9.8 1.2 2 2.6 3.8 4.3 5.5 1.1-.5 2.2-.9 3-1.2C35.3 27 31.1 20.5 25.8 15" style="fill:#00925e"/><path d="M38.5 34c-.8.3-1.9.7-3 1.2 1.1 1.1 2.2 2.2 3.5 3.2l.8.7c.2.2.4.3.6.3h.1c.1-.1.1-.2.1-.3l-1.2-3-.9-2.1" style="fill:#00c2b3"/></svg>